<?xml version="1.0" encoding="UTF-8" standalone="no"?>
<!DOCTYPE svg PUBLIC "-//W3C//DTD SVG 1.1//EN"
 "http://www.w3.org/Graphics/SVG/1.1/DTD/svg11.dtd">
<!-- Generated by graphviz version 5.0.0 (20220707.1540)
 -->
<!-- Title: dependencies Pages: 1 -->
<svg width="244pt" height="247pt"
 viewBox="0.00 0.00 244.00 246.80" xmlns="http://www.w3.org/2000/svg" xmlns:xlink="http://www.w3.org/1999/xlink">
<g id="graph0" class="graph" transform="scale(1 1) rotate(0) translate(4 242.8)">
<title>dependencies</title>
<polygon fill="white" stroke="transparent" points="-4,4 -4,-242.8 240,-242.8 240,4 -4,4"/>
<text text-anchor="middle" x="118" y="-8.2" font-family="sans-serif" font-size="14.00">dependencies</text>
<g id="clust1" class="cluster">
<title>cluster_PaymentTypeModule</title>
<polygon fill="none" stroke="black" stroke-dasharray="1,5" points="8,-32.8 8,-230.8 228,-230.8 228,-32.8 8,-32.8"/>
</g>
<g id="clust6" class="cluster">
<title>cluster_PaymentTypeModule_providers</title>
<polygon fill="none" stroke="black" points="16,-40.8 16,-92.8 220,-92.8 220,-40.8 16,-40.8"/>
</g>
<g id="clust4" class="cluster">
<title>cluster_PaymentTypeModule_exports</title>
<polygon fill="none" stroke="black" points="40,-170.8 40,-222.8 196,-222.8 196,-170.8 40,-170.8"/>
</g>
<!-- PaymentTypeService  -->
<g id="node1" class="node">
<title>PaymentTypeService </title>
<polygon fill="#fb8072" stroke="black" points="187.74,-214.8 48.26,-214.8 48.26,-178.8 187.74,-178.8 187.74,-214.8"/>
<text text-anchor="middle" x="118" y="-192.6" font-family="Times,serif" font-size="14.00">PaymentTypeService </text>
</g>
<!-- PaymentTypeModule -->
<g id="node2" class="node">
<title>PaymentTypeModule</title>
<polygon fill="#8dd3c7" stroke="black" points="186.81,-149.8 183.81,-153.8 162.81,-153.8 159.81,-149.8 49.19,-149.8 49.19,-113.8 186.81,-113.8 186.81,-149.8"/>
<text text-anchor="middle" x="118" y="-127.6" font-family="Times,serif" font-size="14.00">PaymentTypeModule</text>
</g>
<!-- PaymentTypeModule&#45;&gt;PaymentTypeService  -->
<g id="edge1" class="edge">
<title>PaymentTypeModule&#45;&gt;PaymentTypeService </title>
<path fill="none" stroke="black" stroke-dasharray="5,2" d="M118,-149.91C118,-149.91 118,-168.79 118,-168.79"/>
<polygon fill="black" stroke="black" points="114.5,-168.79 118,-178.79 121.5,-168.79 114.5,-168.79"/>
</g>
<!-- PaymentTypeService -->
<g id="node3" class="node">
<title>PaymentTypeService</title>
<ellipse fill="#fdb462" stroke="black" cx="118" cy="-66.8" rx="93.76" ry="18"/>
<text text-anchor="middle" x="118" y="-62.6" font-family="Times,serif" font-size="14.00">PaymentTypeService</text>
</g>
<!-- PaymentTypeService&#45;&gt;PaymentTypeModule -->
<g id="edge2" class="edge">
<title>PaymentTypeService&#45;&gt;PaymentTypeModule</title>
<path fill="none" stroke="black" d="M118,-84.91C118,-84.91 118,-103.79 118,-103.79"/>
<polygon fill="black" stroke="black" points="114.5,-103.79 118,-113.79 121.5,-103.79 114.5,-103.79"/>
</g>
</g>
</svg>
