<?xml version="1.0" encoding="UTF-8" standalone="no"?>
<!DOCTYPE svg PUBLIC "-//W3C//DTD SVG 1.1//EN"
 "http://www.w3.org/Graphics/SVG/1.1/DTD/svg11.dtd">
<!-- Generated by graphviz version 5.0.0 (20220707.1540)
 -->
<!-- Title: dependencies Pages: 1 -->
<svg width="707pt" height="174pt"
 viewBox="0.00 0.00 707.00 173.80" xmlns="http://www.w3.org/2000/svg" xmlns:xlink="http://www.w3.org/1999/xlink">
<g id="graph0" class="graph" transform="scale(1 1) rotate(0) translate(4 169.8)">
<title>dependencies</title>
<polygon fill="white" stroke="transparent" points="-4,4 -4,-169.8 703,-169.8 703,4 -4,4"/>
<text text-anchor="middle" x="349.5" y="-8.2" font-family="sans-serif" font-size="14.00">dependencies</text>
<g id="clust1" class="cluster">
<title>cluster_AuthModule</title>
<polygon fill="none" stroke="black" stroke-dasharray="1,5" points="8,-32.8 8,-157.8 691,-157.8 691,-32.8 8,-32.8"/>
</g>
<g id="clust3" class="cluster">
<title>cluster_AuthModule_imports</title>
<polygon fill="none" stroke="black" points="581,-40.8 581,-92.8 683,-92.8 683,-40.8 581,-40.8"/>
</g>
<g id="clust6" class="cluster">
<title>cluster_AuthModule_providers</title>
<polygon fill="none" stroke="black" points="16,-40.8 16,-92.8 573,-92.8 573,-40.8 16,-40.8"/>
</g>
<!-- UserModule -->
<g id="node1" class="node">
<title>UserModule</title>
<polygon fill="#8dd3c7" stroke="black" points="674.99,-84.8 671.99,-88.8 650.99,-88.8 647.99,-84.8 589.01,-84.8 589.01,-48.8 674.99,-48.8 674.99,-84.8"/>
<text text-anchor="middle" x="632" y="-62.6" font-family="Times,serif" font-size="14.00">UserModule</text>
</g>
<!-- AuthModule -->
<g id="node2" class="node">
<title>AuthModule</title>
<polygon fill="#8dd3c7" stroke="black" points="426.55,-149.8 423.55,-153.8 402.55,-153.8 399.55,-149.8 339.45,-149.8 339.45,-113.8 426.55,-113.8 426.55,-149.8"/>
<text text-anchor="middle" x="383" y="-127.6" font-family="Times,serif" font-size="14.00">AuthModule</text>
</g>
<!-- UserModule&#45;&gt;AuthModule -->
<g id="edge1" class="edge">
<title>UserModule&#45;&gt;AuthModule</title>
<path fill="none" stroke="black" d="M632,-84.91C632,-104.14 632,-131.8 632,-131.8 632,-131.8 436.66,-131.8 436.66,-131.8"/>
<polygon fill="black" stroke="black" points="436.66,-128.3 426.66,-131.8 436.66,-135.3 436.66,-128.3"/>
</g>
<!-- AccessTokenStrategy -->
<g id="node3" class="node">
<title>AccessTokenStrategy</title>
<ellipse fill="#fdb462" stroke="black" cx="470" cy="-66.8" rx="95.48" ry="18"/>
<text text-anchor="middle" x="470" y="-62.6" font-family="Times,serif" font-size="14.00">AccessTokenStrategy</text>
</g>
<!-- AccessTokenStrategy&#45;&gt;AuthModule -->
<g id="edge2" class="edge">
<title>AccessTokenStrategy&#45;&gt;AuthModule</title>
<path fill="none" stroke="black" d="M400.77,-79.33C400.77,-79.33 400.77,-103.65 400.77,-103.65"/>
<polygon fill="black" stroke="black" points="397.27,-103.65 400.77,-113.65 404.27,-103.65 397.27,-103.65"/>
</g>
<!-- AuthService -->
<g id="node4" class="node">
<title>AuthService</title>
<ellipse fill="#fdb462" stroke="black" cx="297" cy="-66.8" rx="59.11" ry="18"/>
<text text-anchor="middle" x="297" y="-62.6" font-family="Times,serif" font-size="14.00">AuthService</text>
</g>
<!-- AuthService&#45;&gt;AuthModule -->
<g id="edge3" class="edge">
<title>AuthService&#45;&gt;AuthModule</title>
<path fill="none" stroke="black" d="M347.77,-76.11C347.77,-76.11 347.77,-103.65 347.77,-103.65"/>
<polygon fill="black" stroke="black" points="344.27,-103.65 347.77,-113.65 351.27,-103.65 344.27,-103.65"/>
</g>
<!-- RefreshTokenStrategy -->
<g id="node5" class="node">
<title>RefreshTokenStrategy</title>
<ellipse fill="#fdb462" stroke="black" cx="122" cy="-66.8" rx="97.84" ry="18"/>
<text text-anchor="middle" x="122" y="-62.6" font-family="Times,serif" font-size="14.00">RefreshTokenStrategy</text>
</g>
<!-- RefreshTokenStrategy&#45;&gt;AuthModule -->
<g id="edge4" class="edge">
<title>RefreshTokenStrategy&#45;&gt;AuthModule</title>
<path fill="none" stroke="black" d="M122,-84.91C122,-104.14 122,-131.8 122,-131.8 122,-131.8 329.31,-131.8 329.31,-131.8"/>
<polygon fill="black" stroke="black" points="329.31,-135.3 339.31,-131.8 329.31,-128.3 329.31,-135.3"/>
</g>
</g>
</svg>
