<?xml version="1.0" encoding="UTF-8" standalone="no"?>
<!DOCTYPE svg PUBLIC "-//W3C//DTD SVG 1.1//EN"
 "http://www.w3.org/Graphics/SVG/1.1/DTD/svg11.dtd">
<!-- Generated by graphviz version 5.0.0 (20220707.1540)
 -->
<!-- Title: dependencies Pages: 1 -->
<svg width="597pt" height="174pt"
 viewBox="0.00 0.00 597.00 173.80" xmlns="http://www.w3.org/2000/svg" xmlns:xlink="http://www.w3.org/1999/xlink">
<g id="graph0" class="graph" transform="scale(1 1) rotate(0) translate(4 169.8)">
<title>dependencies</title>
<polygon fill="white" stroke="transparent" points="-4,4 -4,-169.8 593,-169.8 593,4 -4,4"/>
<text text-anchor="middle" x="294.5" y="-8.2" font-family="sans-serif" font-size="14.00">dependencies</text>
<g id="clust1" class="cluster">
<title>cluster_AuthModule</title>
<polygon fill="none" stroke="black" stroke-dasharray="1,5" points="8,-32.8 8,-157.8 581,-157.8 581,-32.8 8,-32.8"/>
</g>
<g id="clust6" class="cluster">
<title>cluster_AuthModule_providers</title>
<polygon fill="none" stroke="black" points="16,-40.8 16,-92.8 573,-92.8 573,-40.8 16,-40.8"/>
</g>
<!-- AccessTokenStrategy -->
<g id="node1" class="node">
<title>AccessTokenStrategy</title>
<ellipse fill="#fdb462" stroke="black" cx="470" cy="-66.8" rx="95.48" ry="18"/>
<text text-anchor="middle" x="470" y="-62.6" font-family="Times,serif" font-size="14.00">AccessTokenStrategy</text>
</g>
<!-- AuthModule -->
<g id="node4" class="node">
<title>AuthModule</title>
<polygon fill="#8dd3c7" stroke="black" points="340.55,-149.8 337.55,-153.8 316.55,-153.8 313.55,-149.8 253.45,-149.8 253.45,-113.8 340.55,-113.8 340.55,-149.8"/>
<text text-anchor="middle" x="297" y="-127.6" font-family="Times,serif" font-size="14.00">AuthModule</text>
</g>
<!-- AccessTokenStrategy&#45;&gt;AuthModule -->
<g id="edge1" class="edge">
<title>AccessTokenStrategy&#45;&gt;AuthModule</title>
<path fill="none" stroke="black" d="M470,-84.91C470,-104.14 470,-131.8 470,-131.8 470,-131.8 350.66,-131.8 350.66,-131.8"/>
<polygon fill="black" stroke="black" points="350.66,-128.3 340.66,-131.8 350.66,-135.3 350.66,-128.3"/>
</g>
<!-- AuthService -->
<g id="node2" class="node">
<title>AuthService</title>
<ellipse fill="#fdb462" stroke="black" cx="297" cy="-66.8" rx="59.11" ry="18"/>
<text text-anchor="middle" x="297" y="-62.6" font-family="Times,serif" font-size="14.00">AuthService</text>
</g>
<!-- AuthService&#45;&gt;AuthModule -->
<g id="edge2" class="edge">
<title>AuthService&#45;&gt;AuthModule</title>
<path fill="none" stroke="black" d="M297,-84.91C297,-84.91 297,-103.79 297,-103.79"/>
<polygon fill="black" stroke="black" points="293.5,-103.79 297,-113.79 300.5,-103.79 293.5,-103.79"/>
</g>
<!-- RefreshTokenStrategy -->
<g id="node3" class="node">
<title>RefreshTokenStrategy</title>
<ellipse fill="#fdb462" stroke="black" cx="122" cy="-66.8" rx="97.84" ry="18"/>
<text text-anchor="middle" x="122" y="-62.6" font-family="Times,serif" font-size="14.00">RefreshTokenStrategy</text>
</g>
<!-- RefreshTokenStrategy&#45;&gt;AuthModule -->
<g id="edge3" class="edge">
<title>RefreshTokenStrategy&#45;&gt;AuthModule</title>
<path fill="none" stroke="black" d="M122,-84.91C122,-104.14 122,-131.8 122,-131.8 122,-131.8 243.29,-131.8 243.29,-131.8"/>
<polygon fill="black" stroke="black" points="243.29,-135.3 253.29,-131.8 243.29,-128.3 243.29,-135.3"/>
</g>
</g>
</svg>
