<?xml version="1.0" encoding="UTF-8" standalone="no"?>
<!DOCTYPE svg PUBLIC "-//W3C//DTD SVG 1.1//EN"
 "http://www.w3.org/Graphics/SVG/1.1/DTD/svg11.dtd">
<!-- Generated by graphviz version 5.0.0 (20220707.1540)
 -->
<!-- Title: dependencies Pages: 1 -->
<svg width="170pt" height="247pt"
 viewBox="0.00 0.00 170.00 246.80" xmlns="http://www.w3.org/2000/svg" xmlns:xlink="http://www.w3.org/1999/xlink">
<g id="graph0" class="graph" transform="scale(1 1) rotate(0) translate(4 242.8)">
<title>dependencies</title>
<polygon fill="white" stroke="transparent" points="-4,4 -4,-242.8 166,-242.8 166,4 -4,4"/>
<text text-anchor="middle" x="81" y="-8.2" font-family="sans-serif" font-size="14.00">dependencies</text>
<g id="clust1" class="cluster">
<title>cluster_CartModule</title>
<polygon fill="none" stroke="black" stroke-dasharray="1,5" points="8,-32.8 8,-230.8 154,-230.8 154,-32.8 8,-32.8"/>
</g>
<g id="clust6" class="cluster">
<title>cluster_CartModule_providers</title>
<polygon fill="none" stroke="black" points="16,-40.8 16,-92.8 146,-92.8 146,-40.8 16,-40.8"/>
</g>
<g id="clust4" class="cluster">
<title>cluster_CartModule_exports</title>
<polygon fill="none" stroke="black" points="30,-170.8 30,-222.8 132,-222.8 132,-170.8 30,-170.8"/>
</g>
<!-- CartService  -->
<g id="node1" class="node">
<title>CartService </title>
<polygon fill="#fb8072" stroke="black" points="123.58,-214.8 38.42,-214.8 38.42,-178.8 123.58,-178.8 123.58,-214.8"/>
<text text-anchor="middle" x="81" y="-192.6" font-family="Times,serif" font-size="14.00">CartService </text>
</g>
<!-- CartModule -->
<g id="node2" class="node">
<title>CartModule</title>
<polygon fill="#8dd3c7" stroke="black" points="122.66,-149.8 119.66,-153.8 98.66,-153.8 95.66,-149.8 39.34,-149.8 39.34,-113.8 122.66,-113.8 122.66,-149.8"/>
<text text-anchor="middle" x="81" y="-127.6" font-family="Times,serif" font-size="14.00">CartModule</text>
</g>
<!-- CartModule&#45;&gt;CartService  -->
<g id="edge1" class="edge">
<title>CartModule&#45;&gt;CartService </title>
<path fill="none" stroke="black" stroke-dasharray="5,2" d="M81,-149.91C81,-149.91 81,-168.79 81,-168.79"/>
<polygon fill="black" stroke="black" points="77.5,-168.79 81,-178.79 84.5,-168.79 77.5,-168.79"/>
</g>
<!-- CartService -->
<g id="node3" class="node">
<title>CartService</title>
<ellipse fill="#fdb462" stroke="black" cx="81" cy="-66.8" rx="56.74" ry="18"/>
<text text-anchor="middle" x="81" y="-62.6" font-family="Times,serif" font-size="14.00">CartService</text>
</g>
<!-- CartService&#45;&gt;CartModule -->
<g id="edge2" class="edge">
<title>CartService&#45;&gt;CartModule</title>
<path fill="none" stroke="black" d="M81,-84.91C81,-84.91 81,-103.79 81,-103.79"/>
<polygon fill="black" stroke="black" points="77.5,-103.79 81,-113.79 84.5,-103.79 77.5,-103.79"/>
</g>
</g>
</svg>
