<?xml version="1.0" encoding="UTF-8" standalone="no"?>
<!DOCTYPE svg PUBLIC "-//W3C//DTD SVG 1.1//EN"
 "http://www.w3.org/Graphics/SVG/1.1/DTD/svg11.dtd">
<!-- Generated by graphviz version 5.0.0 (20220707.1540)
 -->
<!-- Title: dependencies Pages: 1 -->
<svg width="204pt" height="247pt"
 viewBox="0.00 0.00 204.00 246.80" xmlns="http://www.w3.org/2000/svg" xmlns:xlink="http://www.w3.org/1999/xlink">
<g id="graph0" class="graph" transform="scale(1 1) rotate(0) translate(4 242.8)">
<title>dependencies</title>
<polygon fill="white" stroke="transparent" points="-4,4 -4,-242.8 200,-242.8 200,4 -4,4"/>
<text text-anchor="middle" x="98" y="-8.2" font-family="sans-serif" font-size="14.00">dependencies</text>
<g id="clust1" class="cluster">
<title>cluster_CartItemModule</title>
<polygon fill="none" stroke="black" stroke-dasharray="1,5" points="8,-32.8 8,-230.8 188,-230.8 188,-32.8 8,-32.8"/>
</g>
<g id="clust6" class="cluster">
<title>cluster_CartItemModule_providers</title>
<polygon fill="none" stroke="black" points="16,-40.8 16,-92.8 180,-92.8 180,-40.8 16,-40.8"/>
</g>
<g id="clust4" class="cluster">
<title>cluster_CartItemModule_exports</title>
<polygon fill="none" stroke="black" points="34,-170.8 34,-222.8 162,-222.8 162,-170.8 34,-170.8"/>
</g>
<!-- CartItemService  -->
<g id="node1" class="node">
<title>CartItemService </title>
<polygon fill="#fb8072" stroke="black" points="153.74,-214.8 42.26,-214.8 42.26,-178.8 153.74,-178.8 153.74,-214.8"/>
<text text-anchor="middle" x="98" y="-192.6" font-family="Times,serif" font-size="14.00">CartItemService </text>
</g>
<!-- CartItemModule -->
<g id="node2" class="node">
<title>CartItemModule</title>
<polygon fill="#8dd3c7" stroke="black" points="152.81,-149.8 149.81,-153.8 128.81,-153.8 125.81,-149.8 43.19,-149.8 43.19,-113.8 152.81,-113.8 152.81,-149.8"/>
<text text-anchor="middle" x="98" y="-127.6" font-family="Times,serif" font-size="14.00">CartItemModule</text>
</g>
<!-- CartItemModule&#45;&gt;CartItemService  -->
<g id="edge1" class="edge">
<title>CartItemModule&#45;&gt;CartItemService </title>
<path fill="none" stroke="black" stroke-dasharray="5,2" d="M98,-149.91C98,-149.91 98,-168.79 98,-168.79"/>
<polygon fill="black" stroke="black" points="94.5,-168.79 98,-178.79 101.5,-168.79 94.5,-168.79"/>
</g>
<!-- CartItemService -->
<g id="node3" class="node">
<title>CartItemService</title>
<ellipse fill="#fdb462" stroke="black" cx="98" cy="-66.8" rx="74.13" ry="18"/>
<text text-anchor="middle" x="98" y="-62.6" font-family="Times,serif" font-size="14.00">CartItemService</text>
</g>
<!-- CartItemService&#45;&gt;CartItemModule -->
<g id="edge2" class="edge">
<title>CartItemService&#45;&gt;CartItemModule</title>
<path fill="none" stroke="black" d="M98,-84.91C98,-84.91 98,-103.79 98,-103.79"/>
<polygon fill="black" stroke="black" points="94.5,-103.79 98,-113.79 101.5,-103.79 94.5,-103.79"/>
</g>
</g>
</svg>
