<?xml version="1.0" encoding="UTF-8" standalone="no"?>
<!DOCTYPE svg PUBLIC "-//W3C//DTD SVG 1.1//EN"
 "http://www.w3.org/Graphics/SVG/1.1/DTD/svg11.dtd">
<!-- Generated by graphviz version 5.0.0 (20220707.1540)
 -->
<!-- Title: dependencies Pages: 1 -->
<svg width="1851pt" height="174pt"
 viewBox="0.00 0.00 1851.00 173.80" xmlns="http://www.w3.org/2000/svg" xmlns:xlink="http://www.w3.org/1999/xlink">
<g id="graph0" class="graph" transform="scale(1 1) rotate(0) translate(4 169.8)">
<title>dependencies</title>
<polygon fill="white" stroke="transparent" points="-4,4 -4,-169.8 1847,-169.8 1847,4 -4,4"/>
<text text-anchor="middle" x="921.5" y="-8.2" font-family="sans-serif" font-size="14.00">dependencies</text>
<g id="clust1" class="cluster">
<title>cluster_AppModule</title>
<polygon fill="none" stroke="black" stroke-dasharray="1,5" points="8,-32.8 8,-157.8 1835,-157.8 1835,-32.8 8,-32.8"/>
</g>
<g id="clust3" class="cluster">
<title>cluster_AppModule_imports</title>
<polygon fill="none" stroke="black" points="154,-40.8 154,-92.8 1827,-92.8 1827,-40.8 154,-40.8"/>
</g>
<g id="clust6" class="cluster">
<title>cluster_AppModule_providers</title>
<polygon fill="none" stroke="black" points="16,-40.8 16,-92.8 146,-92.8 146,-40.8 16,-40.8"/>
</g>
<!-- AddressModule -->
<g id="node1" class="node">
<title>AddressModule</title>
<polygon fill="#8dd3c7" stroke="black" points="1818.94,-84.8 1815.94,-88.8 1794.94,-88.8 1791.94,-84.8 1713.06,-84.8 1713.06,-48.8 1818.94,-48.8 1818.94,-84.8"/>
<text text-anchor="middle" x="1766" y="-62.6" font-family="Times,serif" font-size="14.00">AddressModule</text>
</g>
<!-- AppModule -->
<g id="node14" class="node">
<title>AppModule</title>
<polygon fill="#8dd3c7" stroke="black" points="1041.66,-149.8 1038.66,-153.8 1017.66,-153.8 1014.66,-149.8 958.34,-149.8 958.34,-113.8 1041.66,-113.8 1041.66,-149.8"/>
<text text-anchor="middle" x="1000" y="-127.6" font-family="Times,serif" font-size="14.00">AppModule</text>
</g>
<!-- AddressModule&#45;&gt;AppModule -->
<g id="edge1" class="edge">
<title>AddressModule&#45;&gt;AppModule</title>
<path fill="none" stroke="black" d="M1766,-84.89C1766,-107.93 1766,-144.8 1766,-144.8 1766,-144.8 1051.73,-144.8 1051.73,-144.8"/>
<polygon fill="black" stroke="black" points="1051.73,-141.3 1041.73,-144.8 1051.73,-148.3 1051.73,-141.3"/>
</g>
<!-- AuthModule -->
<g id="node2" class="node">
<title>AuthModule</title>
<polygon fill="#8dd3c7" stroke="black" points="1695.55,-84.8 1692.55,-88.8 1671.55,-88.8 1668.55,-84.8 1608.45,-84.8 1608.45,-48.8 1695.55,-48.8 1695.55,-84.8"/>
<text text-anchor="middle" x="1652" y="-62.6" font-family="Times,serif" font-size="14.00">AuthModule</text>
</g>
<!-- AuthModule&#45;&gt;AppModule -->
<g id="edge2" class="edge">
<title>AuthModule&#45;&gt;AppModule</title>
<path fill="none" stroke="black" d="M1652,-84.84C1652,-106.46 1652,-139.8 1652,-139.8 1652,-139.8 1051.78,-139.8 1051.78,-139.8"/>
<polygon fill="black" stroke="black" points="1051.78,-136.3 1041.78,-139.8 1051.78,-143.3 1051.78,-136.3"/>
</g>
<!-- CartItemModule -->
<g id="node3" class="node">
<title>CartItemModule</title>
<polygon fill="#8dd3c7" stroke="black" points="1590.81,-84.8 1587.81,-88.8 1566.81,-88.8 1563.81,-84.8 1481.19,-84.8 1481.19,-48.8 1590.81,-48.8 1590.81,-84.8"/>
<text text-anchor="middle" x="1536" y="-62.6" font-family="Times,serif" font-size="14.00">CartItemModule</text>
</g>
<!-- CartItemModule&#45;&gt;AppModule -->
<g id="edge3" class="edge">
<title>CartItemModule&#45;&gt;AppModule</title>
<path fill="none" stroke="black" d="M1536,-85.02C1536,-105.17 1536,-134.8 1536,-134.8 1536,-134.8 1052.06,-134.8 1052.06,-134.8"/>
<polygon fill="black" stroke="black" points="1052.06,-131.3 1042.06,-134.8 1052.06,-138.3 1052.06,-131.3"/>
</g>
<!-- CartModule -->
<g id="node4" class="node">
<title>CartModule</title>
<polygon fill="#8dd3c7" stroke="black" points="1463.66,-84.8 1460.66,-88.8 1439.66,-88.8 1436.66,-84.8 1380.34,-84.8 1380.34,-48.8 1463.66,-48.8 1463.66,-84.8"/>
<text text-anchor="middle" x="1422" y="-62.6" font-family="Times,serif" font-size="14.00">CartModule</text>
</g>
<!-- CartModule&#45;&gt;AppModule -->
<g id="edge4" class="edge">
<title>CartModule&#45;&gt;AppModule</title>
<path fill="none" stroke="black" d="M1422,-85.02C1422,-103.63 1422,-129.8 1422,-129.8 1422,-129.8 1052.01,-129.8 1052.01,-129.8"/>
<polygon fill="black" stroke="black" points="1052.01,-126.3 1042.01,-129.8 1052.01,-133.3 1052.01,-126.3"/>
</g>
<!-- ExampleModule -->
<g id="node5" class="node">
<title>ExampleModule</title>
<polygon fill="#8dd3c7" stroke="black" points="1362.81,-84.8 1359.81,-88.8 1338.81,-88.8 1335.81,-84.8 1253.19,-84.8 1253.19,-48.8 1362.81,-48.8 1362.81,-84.8"/>
<text text-anchor="middle" x="1308" y="-62.6" font-family="Times,serif" font-size="14.00">ExampleModule</text>
</g>
<!-- ExampleModule&#45;&gt;AppModule -->
<g id="edge5" class="edge">
<title>ExampleModule&#45;&gt;AppModule</title>
<path fill="none" stroke="black" d="M1308,-84.83C1308,-101.86 1308,-124.8 1308,-124.8 1308,-124.8 1051.86,-124.8 1051.86,-124.8"/>
<polygon fill="black" stroke="black" points="1051.86,-121.3 1041.86,-124.8 1051.86,-128.3 1051.86,-121.3"/>
</g>
<!-- OrderModule -->
<g id="node6" class="node">
<title>OrderModule</title>
<polygon fill="#8dd3c7" stroke="black" points="1235.2,-84.8 1232.2,-88.8 1211.2,-88.8 1208.2,-84.8 1142.8,-84.8 1142.8,-48.8 1235.2,-48.8 1235.2,-84.8"/>
<text text-anchor="middle" x="1189" y="-62.6" font-family="Times,serif" font-size="14.00">OrderModule</text>
</g>
<!-- OrderModule&#45;&gt;AppModule -->
<g id="edge6" class="edge">
<title>OrderModule&#45;&gt;AppModule</title>
<path fill="none" stroke="black" d="M1189,-85.04C1189,-100.37 1189,-119.8 1189,-119.8 1189,-119.8 1051.95,-119.8 1051.95,-119.8"/>
<polygon fill="black" stroke="black" points="1051.95,-116.3 1041.95,-119.8 1051.95,-123.3 1051.95,-116.3"/>
</g>
<!-- PaymentModule -->
<g id="node7" class="node">
<title>PaymentModule</title>
<polygon fill="#8dd3c7" stroke="black" points="1125.05,-84.8 1122.05,-88.8 1101.05,-88.8 1098.05,-84.8 1016.95,-84.8 1016.95,-48.8 1125.05,-48.8 1125.05,-84.8"/>
<text text-anchor="middle" x="1071" y="-62.6" font-family="Times,serif" font-size="14.00">PaymentModule</text>
</g>
<!-- PaymentModule&#45;&gt;AppModule -->
<g id="edge7" class="edge">
<title>PaymentModule&#45;&gt;AppModule</title>
<path fill="none" stroke="black" d="M1029.28,-84.91C1029.28,-84.91 1029.28,-103.79 1029.28,-103.79"/>
<polygon fill="black" stroke="black" points="1025.78,-103.79 1029.28,-113.79 1032.78,-103.79 1025.78,-103.79"/>
</g>
<!-- PaymentTypeModule -->
<g id="node8" class="node">
<title>PaymentTypeModule</title>
<polygon fill="#8dd3c7" stroke="black" points="998.81,-84.8 995.81,-88.8 974.81,-88.8 971.81,-84.8 861.19,-84.8 861.19,-48.8 998.81,-48.8 998.81,-84.8"/>
<text text-anchor="middle" x="930" y="-62.6" font-family="Times,serif" font-size="14.00">PaymentTypeModule</text>
</g>
<!-- PaymentTypeModule&#45;&gt;AppModule -->
<g id="edge8" class="edge">
<title>PaymentTypeModule&#45;&gt;AppModule</title>
<path fill="none" stroke="black" d="M978.41,-84.91C978.41,-84.91 978.41,-103.79 978.41,-103.79"/>
<polygon fill="black" stroke="black" points="974.91,-103.79 978.41,-113.79 981.91,-103.79 974.91,-103.79"/>
</g>
<!-- ProductCategoryModule -->
<g id="node9" class="node">
<title>ProductCategoryModule</title>
<polygon fill="#8dd3c7" stroke="black" points="843.42,-84.8 840.42,-88.8 819.42,-88.8 816.42,-84.8 688.58,-84.8 688.58,-48.8 843.42,-48.8 843.42,-84.8"/>
<text text-anchor="middle" x="766" y="-62.6" font-family="Times,serif" font-size="14.00">ProductCategoryModule</text>
</g>
<!-- ProductCategoryModule&#45;&gt;AppModule -->
<g id="edge9" class="edge">
<title>ProductCategoryModule&#45;&gt;AppModule</title>
<path fill="none" stroke="black" d="M766,-85.04C766,-100.37 766,-119.8 766,-119.8 766,-119.8 948.17,-119.8 948.17,-119.8"/>
<polygon fill="black" stroke="black" points="948.17,-123.3 958.17,-119.8 948.17,-116.3 948.17,-123.3"/>
</g>
<!-- ProductModule -->
<g id="node10" class="node">
<title>ProductModule</title>
<polygon fill="#8dd3c7" stroke="black" points="670.6,-84.8 667.6,-88.8 646.6,-88.8 643.6,-84.8 567.4,-84.8 567.4,-48.8 670.6,-48.8 670.6,-84.8"/>
<text text-anchor="middle" x="619" y="-62.6" font-family="Times,serif" font-size="14.00">ProductModule</text>
</g>
<!-- ProductModule&#45;&gt;AppModule -->
<g id="edge10" class="edge">
<title>ProductModule&#45;&gt;AppModule</title>
<path fill="none" stroke="black" d="M619,-84.83C619,-101.86 619,-124.8 619,-124.8 619,-124.8 948.14,-124.8 948.14,-124.8"/>
<polygon fill="black" stroke="black" points="948.14,-128.3 958.14,-124.8 948.14,-121.3 948.14,-128.3"/>
</g>
<!-- UserAddressModule -->
<g id="node11" class="node">
<title>UserAddressModule</title>
<polygon fill="#8dd3c7" stroke="black" points="549.87,-84.8 546.87,-88.8 525.87,-88.8 522.87,-84.8 418.13,-84.8 418.13,-48.8 549.87,-48.8 549.87,-84.8"/>
<text text-anchor="middle" x="484" y="-62.6" font-family="Times,serif" font-size="14.00">UserAddressModule</text>
</g>
<!-- UserAddressModule&#45;&gt;AppModule -->
<g id="edge11" class="edge">
<title>UserAddressModule&#45;&gt;AppModule</title>
<path fill="none" stroke="black" d="M484,-85.02C484,-103.63 484,-129.8 484,-129.8 484,-129.8 948.21,-129.8 948.21,-129.8"/>
<polygon fill="black" stroke="black" points="948.21,-133.3 958.21,-129.8 948.21,-126.3 948.21,-133.3"/>
</g>
<!-- UserModule -->
<g id="node12" class="node">
<title>UserModule</title>
<polygon fill="#8dd3c7" stroke="black" points="399.99,-84.8 396.99,-88.8 375.99,-88.8 372.99,-84.8 314.01,-84.8 314.01,-48.8 399.99,-48.8 399.99,-84.8"/>
<text text-anchor="middle" x="357" y="-62.6" font-family="Times,serif" font-size="14.00">UserModule</text>
</g>
<!-- UserModule&#45;&gt;AppModule -->
<g id="edge12" class="edge">
<title>UserModule&#45;&gt;AppModule</title>
<path fill="none" stroke="black" d="M357,-85.02C357,-105.17 357,-134.8 357,-134.8 357,-134.8 948.31,-134.8 948.31,-134.8"/>
<polygon fill="black" stroke="black" points="948.31,-138.3 958.31,-134.8 948.31,-131.3 948.31,-138.3"/>
</g>
<!-- UserPaymentModule -->
<g id="node13" class="node">
<title>UserPaymentModule</title>
<polygon fill="#8dd3c7" stroke="black" points="296.48,-84.8 293.48,-88.8 272.48,-88.8 269.48,-84.8 161.52,-84.8 161.52,-48.8 296.48,-48.8 296.48,-84.8"/>
<text text-anchor="middle" x="229" y="-62.6" font-family="Times,serif" font-size="14.00">UserPaymentModule</text>
</g>
<!-- UserPaymentModule&#45;&gt;AppModule -->
<g id="edge13" class="edge">
<title>UserPaymentModule&#45;&gt;AppModule</title>
<path fill="none" stroke="black" d="M229,-84.84C229,-106.46 229,-139.8 229,-139.8 229,-139.8 948.27,-139.8 948.27,-139.8"/>
<polygon fill="black" stroke="black" points="948.27,-143.3 958.27,-139.8 948.27,-136.3 948.27,-143.3"/>
</g>
<!-- AppService -->
<g id="node15" class="node">
<title>AppService</title>
<ellipse fill="#fdb462" stroke="black" cx="81" cy="-66.8" rx="56.75" ry="18"/>
<text text-anchor="middle" x="81" y="-62.6" font-family="Times,serif" font-size="14.00">AppService</text>
</g>
<!-- AppService&#45;&gt;AppModule -->
<g id="edge14" class="edge">
<title>AppService&#45;&gt;AppModule</title>
<path fill="none" stroke="black" d="M81,-84.89C81,-107.93 81,-144.8 81,-144.8 81,-144.8 948.12,-144.8 948.12,-144.8"/>
<polygon fill="black" stroke="black" points="948.12,-148.3 958.12,-144.8 948.12,-141.3 948.12,-148.3"/>
</g>
</g>
</svg>
