<?xml version="1.0" encoding="UTF-8" standalone="no"?>
<!DOCTYPE svg PUBLIC "-//W3C//DTD SVG 1.1//EN"
 "http://www.w3.org/Graphics/SVG/1.1/DTD/svg11.dtd">
<!-- Generated by graphviz version 5.0.0 (20220707.1540)
 -->
<!-- Title: dependencies Pages: 1 -->
<svg width="1681pt" height="174pt"
 viewBox="0.00 0.00 1681.00 173.80" xmlns="http://www.w3.org/2000/svg" xmlns:xlink="http://www.w3.org/1999/xlink">
<g id="graph0" class="graph" transform="scale(1 1) rotate(0) translate(4 169.8)">
<title>dependencies</title>
<polygon fill="white" stroke="transparent" points="-4,4 -4,-169.8 1677,-169.8 1677,4 -4,4"/>
<text text-anchor="middle" x="836.5" y="-8.2" font-family="sans-serif" font-size="14.00">dependencies</text>
<g id="clust1" class="cluster">
<title>cluster_AppModule</title>
<polygon fill="none" stroke="black" stroke-dasharray="1,5" points="8,-32.8 8,-157.8 1665,-157.8 1665,-32.8 8,-32.8"/>
</g>
<g id="clust6" class="cluster">
<title>cluster_AppModule_providers</title>
<polygon fill="none" stroke="black" points="1527,-40.8 1527,-92.8 1657,-92.8 1657,-40.8 1527,-40.8"/>
</g>
<g id="clust3" class="cluster">
<title>cluster_AppModule_imports</title>
<polygon fill="none" stroke="black" points="16,-40.8 16,-92.8 1519,-92.8 1519,-40.8 16,-40.8"/>
</g>
<!-- AddressModule -->
<g id="node1" class="node">
<title>AddressModule</title>
<polygon fill="#8dd3c7" stroke="black" points="1510.94,-84.8 1507.94,-88.8 1486.94,-88.8 1483.94,-84.8 1405.06,-84.8 1405.06,-48.8 1510.94,-48.8 1510.94,-84.8"/>
<text text-anchor="middle" x="1458" y="-62.6" font-family="Times,serif" font-size="14.00">AddressModule</text>
</g>
<!-- AppModule -->
<g id="node13" class="node">
<title>AppModule</title>
<polygon fill="#8dd3c7" stroke="black" points="910.66,-149.8 907.66,-153.8 886.66,-153.8 883.66,-149.8 827.34,-149.8 827.34,-113.8 910.66,-113.8 910.66,-149.8"/>
<text text-anchor="middle" x="869" y="-127.6" font-family="Times,serif" font-size="14.00">AppModule</text>
</g>
<!-- AddressModule&#45;&gt;AppModule -->
<g id="edge1" class="edge">
<title>AddressModule&#45;&gt;AppModule</title>
<path fill="none" stroke="black" d="M1458,-84.84C1458,-106.46 1458,-139.8 1458,-139.8 1458,-139.8 920.89,-139.8 920.89,-139.8"/>
<polygon fill="black" stroke="black" points="920.89,-136.3 910.89,-139.8 920.89,-143.3 920.89,-136.3"/>
</g>
<!-- AuthModule -->
<g id="node2" class="node">
<title>AuthModule</title>
<polygon fill="#8dd3c7" stroke="black" points="1387.55,-84.8 1384.55,-88.8 1363.55,-88.8 1360.55,-84.8 1300.45,-84.8 1300.45,-48.8 1387.55,-48.8 1387.55,-84.8"/>
<text text-anchor="middle" x="1344" y="-62.6" font-family="Times,serif" font-size="14.00">AuthModule</text>
</g>
<!-- AuthModule&#45;&gt;AppModule -->
<g id="edge2" class="edge">
<title>AuthModule&#45;&gt;AppModule</title>
<path fill="none" stroke="black" d="M1344,-85.02C1344,-105.17 1344,-134.8 1344,-134.8 1344,-134.8 920.74,-134.8 920.74,-134.8"/>
<polygon fill="black" stroke="black" points="920.74,-131.3 910.74,-134.8 920.74,-138.3 920.74,-131.3"/>
</g>
<!-- CartItemModule -->
<g id="node3" class="node">
<title>CartItemModule</title>
<polygon fill="#8dd3c7" stroke="black" points="1282.81,-84.8 1279.81,-88.8 1258.81,-88.8 1255.81,-84.8 1173.19,-84.8 1173.19,-48.8 1282.81,-48.8 1282.81,-84.8"/>
<text text-anchor="middle" x="1228" y="-62.6" font-family="Times,serif" font-size="14.00">CartItemModule</text>
</g>
<!-- CartItemModule&#45;&gt;AppModule -->
<g id="edge3" class="edge">
<title>CartItemModule&#45;&gt;AppModule</title>
<path fill="none" stroke="black" d="M1228,-85.02C1228,-103.63 1228,-129.8 1228,-129.8 1228,-129.8 920.88,-129.8 920.88,-129.8"/>
<polygon fill="black" stroke="black" points="920.88,-126.3 910.88,-129.8 920.88,-133.3 920.88,-126.3"/>
</g>
<!-- CartModule -->
<g id="node4" class="node">
<title>CartModule</title>
<polygon fill="#8dd3c7" stroke="black" points="1155.66,-84.8 1152.66,-88.8 1131.66,-88.8 1128.66,-84.8 1072.34,-84.8 1072.34,-48.8 1155.66,-48.8 1155.66,-84.8"/>
<text text-anchor="middle" x="1114" y="-62.6" font-family="Times,serif" font-size="14.00">CartModule</text>
</g>
<!-- CartModule&#45;&gt;AppModule -->
<g id="edge4" class="edge">
<title>CartModule&#45;&gt;AppModule</title>
<path fill="none" stroke="black" d="M1114,-84.83C1114,-101.86 1114,-124.8 1114,-124.8 1114,-124.8 920.84,-124.8 920.84,-124.8"/>
<polygon fill="black" stroke="black" points="920.84,-121.3 910.84,-124.8 920.84,-128.3 920.84,-121.3"/>
</g>
<!-- CartTypeModule -->
<g id="node5" class="node">
<title>CartTypeModule</title>
<polygon fill="#8dd3c7" stroke="black" points="1054.42,-84.8 1051.42,-88.8 1030.42,-88.8 1027.42,-84.8 941.58,-84.8 941.58,-48.8 1054.42,-48.8 1054.42,-84.8"/>
<text text-anchor="middle" x="998" y="-62.6" font-family="Times,serif" font-size="14.00">CartTypeModule</text>
</g>
<!-- CartTypeModule&#45;&gt;AppModule -->
<g id="edge5" class="edge">
<title>CartTypeModule&#45;&gt;AppModule</title>
<path fill="none" stroke="black" d="M998,-85.04C998,-100.37 998,-119.8 998,-119.8 998,-119.8 920.88,-119.8 920.88,-119.8"/>
<polygon fill="black" stroke="black" points="920.88,-116.3 910.88,-119.8 920.88,-123.3 920.88,-116.3"/>
</g>
<!-- ExampleModule -->
<g id="node6" class="node">
<title>ExampleModule</title>
<polygon fill="#8dd3c7" stroke="black" points="923.81,-84.8 920.81,-88.8 899.81,-88.8 896.81,-84.8 814.19,-84.8 814.19,-48.8 923.81,-48.8 923.81,-84.8"/>
<text text-anchor="middle" x="869" y="-62.6" font-family="Times,serif" font-size="14.00">ExampleModule</text>
</g>
<!-- ExampleModule&#45;&gt;AppModule -->
<g id="edge6" class="edge">
<title>ExampleModule&#45;&gt;AppModule</title>
<path fill="none" stroke="black" d="M869,-84.91C869,-84.91 869,-103.79 869,-103.79"/>
<polygon fill="black" stroke="black" points="865.5,-103.79 869,-113.79 872.5,-103.79 865.5,-103.79"/>
</g>
<!-- OrderModule -->
<g id="node7" class="node">
<title>OrderModule</title>
<polygon fill="#8dd3c7" stroke="black" points="796.2,-84.8 793.2,-88.8 772.2,-88.8 769.2,-84.8 703.8,-84.8 703.8,-48.8 796.2,-48.8 796.2,-84.8"/>
<text text-anchor="middle" x="750" y="-62.6" font-family="Times,serif" font-size="14.00">OrderModule</text>
</g>
<!-- OrderModule&#45;&gt;AppModule -->
<g id="edge7" class="edge">
<title>OrderModule&#45;&gt;AppModule</title>
<path fill="none" stroke="black" d="M750,-85.04C750,-100.37 750,-119.8 750,-119.8 750,-119.8 817.05,-119.8 817.05,-119.8"/>
<polygon fill="black" stroke="black" points="817.05,-123.3 827.05,-119.8 817.05,-116.3 817.05,-123.3"/>
</g>
<!-- PaymentModule -->
<g id="node8" class="node">
<title>PaymentModule</title>
<polygon fill="#8dd3c7" stroke="black" points="686.05,-84.8 683.05,-88.8 662.05,-88.8 659.05,-84.8 577.95,-84.8 577.95,-48.8 686.05,-48.8 686.05,-84.8"/>
<text text-anchor="middle" x="632" y="-62.6" font-family="Times,serif" font-size="14.00">PaymentModule</text>
</g>
<!-- PaymentModule&#45;&gt;AppModule -->
<g id="edge8" class="edge">
<title>PaymentModule&#45;&gt;AppModule</title>
<path fill="none" stroke="black" d="M632,-84.83C632,-101.86 632,-124.8 632,-124.8 632,-124.8 817.17,-124.8 817.17,-124.8"/>
<polygon fill="black" stroke="black" points="817.17,-128.3 827.17,-124.8 817.17,-121.3 817.17,-128.3"/>
</g>
<!-- PaymentTypeModule -->
<g id="node9" class="node">
<title>PaymentTypeModule</title>
<polygon fill="#8dd3c7" stroke="black" points="559.81,-84.8 556.81,-88.8 535.81,-88.8 532.81,-84.8 422.19,-84.8 422.19,-48.8 559.81,-48.8 559.81,-84.8"/>
<text text-anchor="middle" x="491" y="-62.6" font-family="Times,serif" font-size="14.00">PaymentTypeModule</text>
</g>
<!-- PaymentTypeModule&#45;&gt;AppModule -->
<g id="edge9" class="edge">
<title>PaymentTypeModule&#45;&gt;AppModule</title>
<path fill="none" stroke="black" d="M491,-85.02C491,-103.63 491,-129.8 491,-129.8 491,-129.8 817.1,-129.8 817.1,-129.8"/>
<polygon fill="black" stroke="black" points="817.1,-133.3 827.1,-129.8 817.1,-126.3 817.1,-133.3"/>
</g>
<!-- ProductCategoryModule -->
<g id="node10" class="node">
<title>ProductCategoryModule</title>
<polygon fill="#8dd3c7" stroke="black" points="404.42,-84.8 401.42,-88.8 380.42,-88.8 377.42,-84.8 249.58,-84.8 249.58,-48.8 404.42,-48.8 404.42,-84.8"/>
<text text-anchor="middle" x="327" y="-62.6" font-family="Times,serif" font-size="14.00">ProductCategoryModule</text>
</g>
<!-- ProductCategoryModule&#45;&gt;AppModule -->
<g id="edge10" class="edge">
<title>ProductCategoryModule&#45;&gt;AppModule</title>
<path fill="none" stroke="black" d="M327,-85.02C327,-105.17 327,-134.8 327,-134.8 327,-134.8 816.92,-134.8 816.92,-134.8"/>
<polygon fill="black" stroke="black" points="816.92,-138.3 826.92,-134.8 816.92,-131.3 816.92,-138.3"/>
</g>
<!-- ProductModule -->
<g id="node11" class="node">
<title>ProductModule</title>
<polygon fill="#8dd3c7" stroke="black" points="231.6,-84.8 228.6,-88.8 207.6,-88.8 204.6,-84.8 128.4,-84.8 128.4,-48.8 231.6,-48.8 231.6,-84.8"/>
<text text-anchor="middle" x="180" y="-62.6" font-family="Times,serif" font-size="14.00">ProductModule</text>
</g>
<!-- ProductModule&#45;&gt;AppModule -->
<g id="edge11" class="edge">
<title>ProductModule&#45;&gt;AppModule</title>
<path fill="none" stroke="black" d="M180,-84.84C180,-106.46 180,-139.8 180,-139.8 180,-139.8 817.19,-139.8 817.19,-139.8"/>
<polygon fill="black" stroke="black" points="817.19,-143.3 827.19,-139.8 817.19,-136.3 817.19,-143.3"/>
</g>
<!-- UserModule -->
<g id="node12" class="node">
<title>UserModule</title>
<polygon fill="#8dd3c7" stroke="black" points="109.99,-84.8 106.99,-88.8 85.99,-88.8 82.99,-84.8 24.01,-84.8 24.01,-48.8 109.99,-48.8 109.99,-84.8"/>
<text text-anchor="middle" x="67" y="-62.6" font-family="Times,serif" font-size="14.00">UserModule</text>
</g>
<!-- UserModule&#45;&gt;AppModule -->
<g id="edge12" class="edge">
<title>UserModule&#45;&gt;AppModule</title>
<path fill="none" stroke="black" d="M67,-84.89C67,-107.93 67,-144.8 67,-144.8 67,-144.8 817.29,-144.8 817.29,-144.8"/>
<polygon fill="black" stroke="black" points="817.29,-148.3 827.29,-144.8 817.29,-141.3 817.29,-148.3"/>
</g>
<!-- AppService -->
<g id="node14" class="node">
<title>AppService</title>
<ellipse fill="#fdb462" stroke="black" cx="1592" cy="-66.8" rx="56.75" ry="18"/>
<text text-anchor="middle" x="1592" y="-62.6" font-family="Times,serif" font-size="14.00">AppService</text>
</g>
<!-- AppService&#45;&gt;AppModule -->
<g id="edge13" class="edge">
<title>AppService&#45;&gt;AppModule</title>
<path fill="none" stroke="black" d="M1592,-84.89C1592,-107.93 1592,-144.8 1592,-144.8 1592,-144.8 920.73,-144.8 920.73,-144.8"/>
<polygon fill="black" stroke="black" points="920.73,-141.3 910.73,-144.8 920.73,-148.3 920.73,-141.3"/>
</g>
</g>
</svg>
