<?xml version="1.0" encoding="UTF-8" standalone="no"?>
<!DOCTYPE svg PUBLIC "-//W3C//DTD SVG 1.1//EN"
 "http://www.w3.org/Graphics/SVG/1.1/DTD/svg11.dtd">
<!-- Generated by graphviz version 5.0.0 (20220707.1540)
 -->
<!-- Title: dependencies Pages: 1 -->
<svg width="1681pt" height="174pt"
 viewBox="0.00 0.00 1681.00 173.80" xmlns="http://www.w3.org/2000/svg" xmlns:xlink="http://www.w3.org/1999/xlink">
<g id="graph0" class="graph" transform="scale(1 1) rotate(0) translate(4 169.8)">
<title>dependencies</title>
<polygon fill="white" stroke="transparent" points="-4,4 -4,-169.8 1677,-169.8 1677,4 -4,4"/>
<text text-anchor="middle" x="836.5" y="-8.2" font-family="sans-serif" font-size="14.00">dependencies</text>
<g id="clust1" class="cluster">
<title>cluster_AppModule</title>
<polygon fill="none" stroke="black" stroke-dasharray="1,5" points="8,-32.8 8,-157.8 1665,-157.8 1665,-32.8 8,-32.8"/>
</g>
<g id="clust3" class="cluster">
<title>cluster_AppModule_imports</title>
<polygon fill="none" stroke="black" points="154,-40.8 154,-92.8 1657,-92.8 1657,-40.8 154,-40.8"/>
</g>
<g id="clust6" class="cluster">
<title>cluster_AppModule_providers</title>
<polygon fill="none" stroke="black" points="16,-40.8 16,-92.8 146,-92.8 146,-40.8 16,-40.8"/>
</g>
<!-- AddressModule -->
<g id="node1" class="node">
<title>AddressModule</title>
<polygon fill="#8dd3c7" stroke="black" points="1648.94,-84.8 1645.94,-88.8 1624.94,-88.8 1621.94,-84.8 1543.06,-84.8 1543.06,-48.8 1648.94,-48.8 1648.94,-84.8"/>
<text text-anchor="middle" x="1596" y="-62.6" font-family="Times,serif" font-size="14.00">AddressModule</text>
</g>
<!-- AppModule -->
<g id="node13" class="node">
<title>AppModule</title>
<polygon fill="#8dd3c7" stroke="black" points="929.66,-149.8 926.66,-153.8 905.66,-153.8 902.66,-149.8 846.34,-149.8 846.34,-113.8 929.66,-113.8 929.66,-149.8"/>
<text text-anchor="middle" x="888" y="-127.6" font-family="Times,serif" font-size="14.00">AppModule</text>
</g>
<!-- AddressModule&#45;&gt;AppModule -->
<g id="edge1" class="edge">
<title>AddressModule&#45;&gt;AppModule</title>
<path fill="none" stroke="black" d="M1596,-84.89C1596,-107.93 1596,-144.8 1596,-144.8 1596,-144.8 939.91,-144.8 939.91,-144.8"/>
<polygon fill="black" stroke="black" points="939.91,-141.3 929.91,-144.8 939.91,-148.3 939.91,-141.3"/>
</g>
<!-- AuthModule -->
<g id="node2" class="node">
<title>AuthModule</title>
<polygon fill="#8dd3c7" stroke="black" points="1525.55,-84.8 1522.55,-88.8 1501.55,-88.8 1498.55,-84.8 1438.45,-84.8 1438.45,-48.8 1525.55,-48.8 1525.55,-84.8"/>
<text text-anchor="middle" x="1482" y="-62.6" font-family="Times,serif" font-size="14.00">AuthModule</text>
</g>
<!-- AuthModule&#45;&gt;AppModule -->
<g id="edge2" class="edge">
<title>AuthModule&#45;&gt;AppModule</title>
<path fill="none" stroke="black" d="M1482,-84.84C1482,-106.46 1482,-139.8 1482,-139.8 1482,-139.8 939.77,-139.8 939.77,-139.8"/>
<polygon fill="black" stroke="black" points="939.77,-136.3 929.77,-139.8 939.77,-143.3 939.77,-136.3"/>
</g>
<!-- CartItemModule -->
<g id="node3" class="node">
<title>CartItemModule</title>
<polygon fill="#8dd3c7" stroke="black" points="1420.81,-84.8 1417.81,-88.8 1396.81,-88.8 1393.81,-84.8 1311.19,-84.8 1311.19,-48.8 1420.81,-48.8 1420.81,-84.8"/>
<text text-anchor="middle" x="1366" y="-62.6" font-family="Times,serif" font-size="14.00">CartItemModule</text>
</g>
<!-- CartItemModule&#45;&gt;AppModule -->
<g id="edge3" class="edge">
<title>CartItemModule&#45;&gt;AppModule</title>
<path fill="none" stroke="black" d="M1366,-85.02C1366,-105.17 1366,-134.8 1366,-134.8 1366,-134.8 940,-134.8 940,-134.8"/>
<polygon fill="black" stroke="black" points="940,-131.3 930,-134.8 940,-138.3 940,-131.3"/>
</g>
<!-- CartModule -->
<g id="node4" class="node">
<title>CartModule</title>
<polygon fill="#8dd3c7" stroke="black" points="1293.66,-84.8 1290.66,-88.8 1269.66,-88.8 1266.66,-84.8 1210.34,-84.8 1210.34,-48.8 1293.66,-48.8 1293.66,-84.8"/>
<text text-anchor="middle" x="1252" y="-62.6" font-family="Times,serif" font-size="14.00">CartModule</text>
</g>
<!-- CartModule&#45;&gt;AppModule -->
<g id="edge4" class="edge">
<title>CartModule&#45;&gt;AppModule</title>
<path fill="none" stroke="black" d="M1252,-85.02C1252,-103.63 1252,-129.8 1252,-129.8 1252,-129.8 939.76,-129.8 939.76,-129.8"/>
<polygon fill="black" stroke="black" points="939.76,-126.3 929.76,-129.8 939.76,-133.3 939.76,-126.3"/>
</g>
<!-- CartTypeModule -->
<g id="node5" class="node">
<title>CartTypeModule</title>
<polygon fill="#8dd3c7" stroke="black" points="1192.42,-84.8 1189.42,-88.8 1168.42,-88.8 1165.42,-84.8 1079.58,-84.8 1079.58,-48.8 1192.42,-48.8 1192.42,-84.8"/>
<text text-anchor="middle" x="1136" y="-62.6" font-family="Times,serif" font-size="14.00">CartTypeModule</text>
</g>
<!-- CartTypeModule&#45;&gt;AppModule -->
<g id="edge5" class="edge">
<title>CartTypeModule&#45;&gt;AppModule</title>
<path fill="none" stroke="black" d="M1136,-84.83C1136,-101.86 1136,-124.8 1136,-124.8 1136,-124.8 939.79,-124.8 939.79,-124.8"/>
<polygon fill="black" stroke="black" points="939.79,-121.3 929.79,-124.8 939.79,-128.3 939.79,-121.3"/>
</g>
<!-- ExampleModule -->
<g id="node6" class="node">
<title>ExampleModule</title>
<polygon fill="#8dd3c7" stroke="black" points="1061.81,-84.8 1058.81,-88.8 1037.81,-88.8 1034.81,-84.8 952.19,-84.8 952.19,-48.8 1061.81,-48.8 1061.81,-84.8"/>
<text text-anchor="middle" x="1007" y="-62.6" font-family="Times,serif" font-size="14.00">ExampleModule</text>
</g>
<!-- ExampleModule&#45;&gt;AppModule -->
<g id="edge6" class="edge">
<title>ExampleModule&#45;&gt;AppModule</title>
<path fill="none" stroke="black" d="M1007,-85.04C1007,-100.37 1007,-119.8 1007,-119.8 1007,-119.8 939.95,-119.8 939.95,-119.8"/>
<polygon fill="black" stroke="black" points="939.95,-116.3 929.95,-119.8 939.95,-123.3 939.95,-116.3"/>
</g>
<!-- OrderModule -->
<g id="node7" class="node">
<title>OrderModule</title>
<polygon fill="#8dd3c7" stroke="black" points="934.2,-84.8 931.2,-88.8 910.2,-88.8 907.2,-84.8 841.8,-84.8 841.8,-48.8 934.2,-48.8 934.2,-84.8"/>
<text text-anchor="middle" x="888" y="-62.6" font-family="Times,serif" font-size="14.00">OrderModule</text>
</g>
<!-- OrderModule&#45;&gt;AppModule -->
<g id="edge7" class="edge">
<title>OrderModule&#45;&gt;AppModule</title>
<path fill="none" stroke="black" d="M888,-84.91C888,-84.91 888,-103.79 888,-103.79"/>
<polygon fill="black" stroke="black" points="884.5,-103.79 888,-113.79 891.5,-103.79 884.5,-103.79"/>
</g>
<!-- PaymentModule -->
<g id="node8" class="node">
<title>PaymentModule</title>
<polygon fill="#8dd3c7" stroke="black" points="824.05,-84.8 821.05,-88.8 800.05,-88.8 797.05,-84.8 715.95,-84.8 715.95,-48.8 824.05,-48.8 824.05,-84.8"/>
<text text-anchor="middle" x="770" y="-62.6" font-family="Times,serif" font-size="14.00">PaymentModule</text>
</g>
<!-- PaymentModule&#45;&gt;AppModule -->
<g id="edge8" class="edge">
<title>PaymentModule&#45;&gt;AppModule</title>
<path fill="none" stroke="black" d="M770,-85.04C770,-100.37 770,-119.8 770,-119.8 770,-119.8 836.07,-119.8 836.07,-119.8"/>
<polygon fill="black" stroke="black" points="836.07,-123.3 846.07,-119.8 836.07,-116.3 836.07,-123.3"/>
</g>
<!-- PaymentTypeModule -->
<g id="node9" class="node">
<title>PaymentTypeModule</title>
<polygon fill="#8dd3c7" stroke="black" points="697.81,-84.8 694.81,-88.8 673.81,-88.8 670.81,-84.8 560.19,-84.8 560.19,-48.8 697.81,-48.8 697.81,-84.8"/>
<text text-anchor="middle" x="629" y="-62.6" font-family="Times,serif" font-size="14.00">PaymentTypeModule</text>
</g>
<!-- PaymentTypeModule&#45;&gt;AppModule -->
<g id="edge9" class="edge">
<title>PaymentTypeModule&#45;&gt;AppModule</title>
<path fill="none" stroke="black" d="M629,-84.83C629,-101.86 629,-124.8 629,-124.8 629,-124.8 836.1,-124.8 836.1,-124.8"/>
<polygon fill="black" stroke="black" points="836.1,-128.3 846.1,-124.8 836.1,-121.3 836.1,-128.3"/>
</g>
<!-- ProductCategoryModule -->
<g id="node10" class="node">
<title>ProductCategoryModule</title>
<polygon fill="#8dd3c7" stroke="black" points="542.42,-84.8 539.42,-88.8 518.42,-88.8 515.42,-84.8 387.58,-84.8 387.58,-48.8 542.42,-48.8 542.42,-84.8"/>
<text text-anchor="middle" x="465" y="-62.6" font-family="Times,serif" font-size="14.00">ProductCategoryModule</text>
</g>
<!-- ProductCategoryModule&#45;&gt;AppModule -->
<g id="edge10" class="edge">
<title>ProductCategoryModule&#45;&gt;AppModule</title>
<path fill="none" stroke="black" d="M465,-85.02C465,-103.63 465,-129.8 465,-129.8 465,-129.8 836.28,-129.8 836.28,-129.8"/>
<polygon fill="black" stroke="black" points="836.28,-133.3 846.28,-129.8 836.28,-126.3 836.28,-133.3"/>
</g>
<!-- ProductModule -->
<g id="node11" class="node">
<title>ProductModule</title>
<polygon fill="#8dd3c7" stroke="black" points="369.6,-84.8 366.6,-88.8 345.6,-88.8 342.6,-84.8 266.4,-84.8 266.4,-48.8 369.6,-48.8 369.6,-84.8"/>
<text text-anchor="middle" x="318" y="-62.6" font-family="Times,serif" font-size="14.00">ProductModule</text>
</g>
<!-- ProductModule&#45;&gt;AppModule -->
<g id="edge11" class="edge">
<title>ProductModule&#45;&gt;AppModule</title>
<path fill="none" stroke="black" d="M318,-85.02C318,-105.17 318,-134.8 318,-134.8 318,-134.8 836.09,-134.8 836.09,-134.8"/>
<polygon fill="black" stroke="black" points="836.09,-138.3 846.09,-134.8 836.09,-131.3 836.09,-138.3"/>
</g>
<!-- UserModule -->
<g id="node12" class="node">
<title>UserModule</title>
<polygon fill="#8dd3c7" stroke="black" points="247.99,-84.8 244.99,-88.8 223.99,-88.8 220.99,-84.8 162.01,-84.8 162.01,-48.8 247.99,-48.8 247.99,-84.8"/>
<text text-anchor="middle" x="205" y="-62.6" font-family="Times,serif" font-size="14.00">UserModule</text>
</g>
<!-- UserModule&#45;&gt;AppModule -->
<g id="edge12" class="edge">
<title>UserModule&#45;&gt;AppModule</title>
<path fill="none" stroke="black" d="M205,-84.84C205,-106.46 205,-139.8 205,-139.8 205,-139.8 836.3,-139.8 836.3,-139.8"/>
<polygon fill="black" stroke="black" points="836.3,-143.3 846.3,-139.8 836.3,-136.3 836.3,-143.3"/>
</g>
<!-- AppService -->
<g id="node14" class="node">
<title>AppService</title>
<ellipse fill="#fdb462" stroke="black" cx="81" cy="-66.8" rx="56.75" ry="18"/>
<text text-anchor="middle" x="81" y="-62.6" font-family="Times,serif" font-size="14.00">AppService</text>
</g>
<!-- AppService&#45;&gt;AppModule -->
<g id="edge13" class="edge">
<title>AppService&#45;&gt;AppModule</title>
<path fill="none" stroke="black" d="M81,-84.89C81,-107.93 81,-144.8 81,-144.8 81,-144.8 836.31,-144.8 836.31,-144.8"/>
<polygon fill="black" stroke="black" points="836.31,-148.3 846.31,-144.8 836.31,-141.3 836.31,-148.3"/>
</g>
</g>
</svg>
