<?xml version="1.0" encoding="UTF-8" standalone="no"?>
<!DOCTYPE svg PUBLIC "-//W3C//DTD SVG 1.1//EN"
 "http://www.w3.org/Graphics/SVG/1.1/DTD/svg11.dtd">
<!-- Generated by graphviz version 5.0.0 (20220707.1540)
 -->
<!-- Title: dependencies Pages: 1 -->
<svg width="2486pt" height="326pt"
 viewBox="0.00 0.00 2486.00 325.80" xmlns="http://www.w3.org/2000/svg" xmlns:xlink="http://www.w3.org/1999/xlink">
<g id="graph0" class="graph" transform="scale(1 1) rotate(0) translate(4 321.8)">
<title>dependencies</title>
<polygon fill="white" stroke="transparent" points="-4,4 -4,-321.8 2482,-321.8 2482,4 -4,4"/>
<text text-anchor="middle" x="1239" y="-8.2" font-family="sans-serif" font-size="14.00">dependencies</text>
<g id="clust1" class="cluster">
<title>cluster_AddressModule</title>
<polygon fill="none" stroke="black" stroke-dasharray="1,5" points="8,-108.8 8,-244.8 184,-244.8 184,-108.8 8,-108.8"/>
</g>
<g id="clust6" class="cluster">
<title>cluster_AddressModule_providers</title>
<polygon fill="none" stroke="black" points="16,-116.8 16,-168.8 176,-168.8 176,-116.8 16,-116.8"/>
</g>
<g id="clust7" class="cluster">
<title>cluster_AppModule</title>
<polygon fill="none" stroke="black" stroke-dasharray="1,5" points="773,-108.8 773,-309.8 2202,-309.8 2202,-108.8 773,-108.8"/>
</g>
<g id="clust9" class="cluster">
<title>cluster_AppModule_imports</title>
<polygon fill="none" stroke="black" points="919,-116.8 919,-244.8 2194,-244.8 2194,-116.8 919,-116.8"/>
</g>
<g id="clust12" class="cluster">
<title>cluster_AppModule_providers</title>
<polygon fill="none" stroke="black" points="781,-192.8 781,-244.8 911,-244.8 911,-192.8 781,-192.8"/>
</g>
<g id="clust13" class="cluster">
<title>cluster_AuthModule</title>
<polygon fill="none" stroke="black" stroke-dasharray="1,5" points="192,-108.8 192,-176.8 765,-176.8 765,-108.8 192,-108.8"/>
</g>
<g id="clust18" class="cluster">
<title>cluster_AuthModule_providers</title>
<polygon fill="none" stroke="black" points="200,-116.8 200,-168.8 757,-168.8 757,-116.8 200,-116.8"/>
</g>
<g id="clust19" class="cluster">
<title>cluster_CartItemModule</title>
<polygon fill="none" stroke="black" stroke-dasharray="1,5" points="659,-32.8 659,-100.8 839,-100.8 839,-32.8 659,-32.8"/>
</g>
<g id="clust24" class="cluster">
<title>cluster_CartItemModule_providers</title>
<polygon fill="none" stroke="black" points="667,-40.8 667,-92.8 831,-92.8 831,-40.8 667,-40.8"/>
</g>
<g id="clust25" class="cluster">
<title>cluster_CartModule</title>
<polygon fill="none" stroke="black" stroke-dasharray="1,5" points="847,-32.8 847,-100.8 993,-100.8 993,-32.8 847,-32.8"/>
</g>
<g id="clust30" class="cluster">
<title>cluster_CartModule_providers</title>
<polygon fill="none" stroke="black" points="855,-40.8 855,-92.8 985,-92.8 985,-40.8 855,-40.8"/>
</g>
<g id="clust31" class="cluster">
<title>cluster_CartTypeModule</title>
<polygon fill="none" stroke="black" stroke-dasharray="1,5" points="1001,-32.8 1001,-100.8 1185,-100.8 1185,-32.8 1001,-32.8"/>
</g>
<g id="clust36" class="cluster">
<title>cluster_CartTypeModule_providers</title>
<polygon fill="none" stroke="black" points="1009,-40.8 1009,-92.8 1177,-92.8 1177,-40.8 1009,-40.8"/>
</g>
<g id="clust37" class="cluster">
<title>cluster_ExampleModule</title>
<polygon fill="none" stroke="black" stroke-dasharray="1,5" points="1193,-32.8 1193,-100.8 1373,-100.8 1373,-32.8 1193,-32.8"/>
</g>
<g id="clust42" class="cluster">
<title>cluster_ExampleModule_providers</title>
<polygon fill="none" stroke="black" points="1201,-40.8 1201,-92.8 1365,-92.8 1365,-40.8 1201,-40.8"/>
</g>
<g id="clust43" class="cluster">
<title>cluster_OrderModule</title>
<polygon fill="none" stroke="black" stroke-dasharray="1,5" points="1381,-32.8 1381,-100.8 1539,-100.8 1539,-32.8 1381,-32.8"/>
</g>
<g id="clust48" class="cluster">
<title>cluster_OrderModule_providers</title>
<polygon fill="none" stroke="black" points="1389,-40.8 1389,-92.8 1531,-92.8 1531,-40.8 1389,-40.8"/>
</g>
<g id="clust49" class="cluster">
<title>cluster_PaymentModule</title>
<polygon fill="none" stroke="black" stroke-dasharray="1,5" points="1547,-32.8 1547,-100.8 1727,-100.8 1727,-32.8 1547,-32.8"/>
</g>
<g id="clust54" class="cluster">
<title>cluster_PaymentModule_providers</title>
<polygon fill="none" stroke="black" points="1555,-40.8 1555,-92.8 1719,-92.8 1719,-40.8 1555,-40.8"/>
</g>
<g id="clust55" class="cluster">
<title>cluster_PaymentTypeModule</title>
<polygon fill="none" stroke="black" stroke-dasharray="1,5" points="1735,-32.8 1735,-100.8 1955,-100.8 1955,-32.8 1735,-32.8"/>
</g>
<g id="clust60" class="cluster">
<title>cluster_PaymentTypeModule_providers</title>
<polygon fill="none" stroke="black" points="1743,-40.8 1743,-92.8 1947,-92.8 1947,-40.8 1743,-40.8"/>
</g>
<g id="clust61" class="cluster">
<title>cluster_ProductCategoryModule</title>
<polygon fill="none" stroke="black" stroke-dasharray="1,5" points="1963,-32.8 1963,-100.8 2205,-100.8 2205,-32.8 1963,-32.8"/>
</g>
<g id="clust66" class="cluster">
<title>cluster_ProductCategoryModule_providers</title>
<polygon fill="none" stroke="black" points="1971,-40.8 1971,-92.8 2197,-92.8 2197,-40.8 1971,-40.8"/>
</g>
<g id="clust67" class="cluster">
<title>cluster_ProductModule</title>
<polygon fill="none" stroke="black" stroke-dasharray="1,5" points="2213,-32.8 2213,-100.8 2385,-100.8 2385,-32.8 2213,-32.8"/>
</g>
<g id="clust72" class="cluster">
<title>cluster_ProductModule_providers</title>
<polygon fill="none" stroke="black" points="2221,-40.8 2221,-92.8 2377,-92.8 2377,-40.8 2221,-40.8"/>
</g>
<g id="clust73" class="cluster">
<title>cluster_UserModule</title>
<polygon fill="none" stroke="black" stroke-dasharray="1,5" points="2210,-184.8 2210,-252.8 2470,-252.8 2470,-184.8 2210,-184.8"/>
</g>
<g id="clust76" class="cluster">
<title>cluster_UserModule_exports</title>
<polygon fill="none" stroke="black" points="2358,-192.8 2358,-244.8 2462,-244.8 2462,-192.8 2358,-192.8"/>
</g>
<g id="clust78" class="cluster">
<title>cluster_UserModule_providers</title>
<polygon fill="none" stroke="black" points="2218,-192.8 2218,-244.8 2350,-244.8 2350,-192.8 2218,-192.8"/>
</g>
<!-- AddressService -->
<g id="node1" class="node">
<title>AddressService</title>
<ellipse fill="#fdb462" stroke="black" cx="96" cy="-142.8" rx="71.78" ry="18"/>
<text text-anchor="middle" x="96" y="-138.6" font-family="Times,serif" font-size="14.00">AddressService</text>
</g>
<!-- AddressModule -->
<g id="node2" class="node">
<title>AddressModule</title>
<polygon fill="#8dd3c7" stroke="black" points="161.94,-236.8 158.94,-240.8 137.94,-240.8 134.94,-236.8 56.06,-236.8 56.06,-200.8 161.94,-200.8 161.94,-236.8"/>
<text text-anchor="middle" x="109" y="-214.6" font-family="Times,serif" font-size="14.00">AddressModule</text>
</g>
<!-- AddressService&#45;&gt;AddressModule -->
<g id="edge1" class="edge">
<title>AddressService&#45;&gt;AddressModule</title>
<path fill="none" stroke="black" d="M109,-160.81C109,-160.81 109,-190.65 109,-190.65"/>
<polygon fill="black" stroke="black" points="105.5,-190.65 109,-200.65 112.5,-190.65 105.5,-190.65"/>
</g>
<!-- AppModule -->
<g id="node14" class="node">
<title>AppModule</title>
<polygon fill="#8dd3c7" stroke="black" points="1382.66,-301.8 1379.66,-305.8 1358.66,-305.8 1355.66,-301.8 1299.34,-301.8 1299.34,-265.8 1382.66,-265.8 1382.66,-301.8"/>
<text text-anchor="middle" x="1341" y="-279.6" font-family="Times,serif" font-size="14.00">AppModule</text>
</g>
<!-- AddressModule&#45;&gt;AppModule -->
<g id="edge2" class="edge">
<title>AddressModule&#45;&gt;AppModule</title>
<path fill="none" stroke="black" d="M109,-236.89C109,-259.93 109,-296.8 109,-296.8 109,-296.8 1289.3,-296.8 1289.3,-296.8"/>
<polygon fill="black" stroke="black" points="1289.3,-300.3 1299.3,-296.8 1289.3,-293.3 1289.3,-300.3"/>
</g>
<!-- AuthModule -->
<g id="node3" class="node">
<title>AuthModule</title>
<polygon fill="#8dd3c7" stroke="black" points="1014.55,-236.8 1011.55,-240.8 990.55,-240.8 987.55,-236.8 927.45,-236.8 927.45,-200.8 1014.55,-200.8 1014.55,-236.8"/>
<text text-anchor="middle" x="971" y="-214.6" font-family="Times,serif" font-size="14.00">AuthModule</text>
</g>
<!-- AuthModule&#45;&gt;AppModule -->
<g id="edge3" class="edge">
<title>AuthModule&#45;&gt;AppModule</title>
<path fill="none" stroke="black" d="M1014.66,-218.8C1109.74,-218.8 1327.06,-218.8 1327.06,-218.8 1327.06,-218.8 1327.06,-255.69 1327.06,-255.69"/>
<polygon fill="black" stroke="black" points="1323.56,-255.69 1327.06,-265.69 1330.56,-255.69 1323.56,-255.69"/>
</g>
<!-- CartItemModule -->
<g id="node4" class="node">
<title>CartItemModule</title>
<polygon fill="#8dd3c7" stroke="black" points="1036.81,-160.8 1033.81,-164.8 1012.81,-164.8 1009.81,-160.8 927.19,-160.8 927.19,-124.8 1036.81,-124.8 1036.81,-160.8"/>
<text text-anchor="middle" x="982" y="-138.6" font-family="Times,serif" font-size="14.00">CartItemModule</text>
</g>
<!-- CartItemModule&#45;&gt;AppModule -->
<g id="edge4" class="edge">
<title>CartItemModule&#45;&gt;AppModule</title>
<path fill="none" stroke="black" d="M1025.72,-160.94C1025.72,-199.03 1025.72,-283.8 1025.72,-283.8 1025.72,-283.8 1289.13,-283.8 1289.13,-283.8"/>
<polygon fill="black" stroke="black" points="1289.13,-287.3 1299.13,-283.8 1289.13,-280.3 1289.13,-287.3"/>
</g>
<!-- CartModule -->
<g id="node5" class="node">
<title>CartModule</title>
<polygon fill="#8dd3c7" stroke="black" points="1137.66,-160.8 1134.66,-164.8 1113.66,-164.8 1110.66,-160.8 1054.34,-160.8 1054.34,-124.8 1137.66,-124.8 1137.66,-160.8"/>
<text text-anchor="middle" x="1096" y="-138.6" font-family="Times,serif" font-size="14.00">CartModule</text>
</g>
<!-- CartModule&#45;&gt;AppModule -->
<g id="edge5" class="edge">
<title>CartModule&#45;&gt;AppModule</title>
<path fill="none" stroke="black" d="M1096,-161.01C1096,-197.86 1096,-277.8 1096,-277.8 1096,-277.8 1289.16,-277.8 1289.16,-277.8"/>
<polygon fill="black" stroke="black" points="1289.16,-281.3 1299.16,-277.8 1289.16,-274.3 1289.16,-281.3"/>
</g>
<!-- CartTypeModule -->
<g id="node6" class="node">
<title>CartTypeModule</title>
<polygon fill="#8dd3c7" stroke="black" points="1268.42,-160.8 1265.42,-164.8 1244.42,-164.8 1241.42,-160.8 1155.58,-160.8 1155.58,-124.8 1268.42,-124.8 1268.42,-160.8"/>
<text text-anchor="middle" x="1212" y="-138.6" font-family="Times,serif" font-size="14.00">CartTypeModule</text>
</g>
<!-- CartTypeModule&#45;&gt;AppModule -->
<g id="edge6" class="edge">
<title>CartTypeModule&#45;&gt;AppModule</title>
<path fill="none" stroke="black" d="M1212,-161.01C1212,-196.57 1212,-271.8 1212,-271.8 1212,-271.8 1289.12,-271.8 1289.12,-271.8"/>
<polygon fill="black" stroke="black" points="1289.12,-275.3 1299.12,-271.8 1289.12,-268.3 1289.12,-275.3"/>
</g>
<!-- ExampleModule -->
<g id="node7" class="node">
<title>ExampleModule</title>
<polygon fill="#8dd3c7" stroke="black" points="1395.81,-160.8 1392.81,-164.8 1371.81,-164.8 1368.81,-160.8 1286.19,-160.8 1286.19,-124.8 1395.81,-124.8 1395.81,-160.8"/>
<text text-anchor="middle" x="1341" y="-138.6" font-family="Times,serif" font-size="14.00">ExampleModule</text>
</g>
<!-- ExampleModule&#45;&gt;AppModule -->
<g id="edge7" class="edge">
<title>ExampleModule&#45;&gt;AppModule</title>
<path fill="none" stroke="black" d="M1354.94,-160.94C1354.94,-160.94 1354.94,-255.73 1354.94,-255.73"/>
<polygon fill="black" stroke="black" points="1351.44,-255.72 1354.94,-265.73 1358.44,-255.73 1351.44,-255.72"/>
</g>
<!-- OrderModule -->
<g id="node8" class="node">
<title>OrderModule</title>
<polygon fill="#8dd3c7" stroke="black" points="1506.2,-160.8 1503.2,-164.8 1482.2,-164.8 1479.2,-160.8 1413.8,-160.8 1413.8,-124.8 1506.2,-124.8 1506.2,-160.8"/>
<text text-anchor="middle" x="1460" y="-138.6" font-family="Times,serif" font-size="14.00">OrderModule</text>
</g>
<!-- OrderModule&#45;&gt;AppModule -->
<g id="edge8" class="edge">
<title>OrderModule&#45;&gt;AppModule</title>
<path fill="none" stroke="black" d="M1460,-161.01C1460,-196.57 1460,-271.8 1460,-271.8 1460,-271.8 1392.95,-271.8 1392.95,-271.8"/>
<polygon fill="black" stroke="black" points="1392.95,-268.3 1382.95,-271.8 1392.95,-275.3 1392.95,-268.3"/>
</g>
<!-- PaymentModule -->
<g id="node9" class="node">
<title>PaymentModule</title>
<polygon fill="#8dd3c7" stroke="black" points="1632.05,-160.8 1629.05,-164.8 1608.05,-164.8 1605.05,-160.8 1523.95,-160.8 1523.95,-124.8 1632.05,-124.8 1632.05,-160.8"/>
<text text-anchor="middle" x="1578" y="-138.6" font-family="Times,serif" font-size="14.00">PaymentModule</text>
</g>
<!-- PaymentModule&#45;&gt;AppModule -->
<g id="edge9" class="edge">
<title>PaymentModule&#45;&gt;AppModule</title>
<path fill="none" stroke="black" d="M1578,-160.87C1578,-197.45 1578,-276.8 1578,-276.8 1578,-276.8 1392.83,-276.8 1392.83,-276.8"/>
<polygon fill="black" stroke="black" points="1392.83,-273.3 1382.83,-276.8 1392.83,-280.3 1392.83,-273.3"/>
</g>
<!-- PaymentTypeModule -->
<g id="node10" class="node">
<title>PaymentTypeModule</title>
<polygon fill="#8dd3c7" stroke="black" points="1787.81,-160.8 1784.81,-164.8 1763.81,-164.8 1760.81,-160.8 1650.19,-160.8 1650.19,-124.8 1787.81,-124.8 1787.81,-160.8"/>
<text text-anchor="middle" x="1719" y="-138.6" font-family="Times,serif" font-size="14.00">PaymentTypeModule</text>
</g>
<!-- PaymentTypeModule&#45;&gt;AppModule -->
<g id="edge10" class="edge">
<title>PaymentTypeModule&#45;&gt;AppModule</title>
<path fill="none" stroke="black" d="M1719,-160.97C1719,-198.65 1719,-281.8 1719,-281.8 1719,-281.8 1392.9,-281.8 1392.9,-281.8"/>
<polygon fill="black" stroke="black" points="1392.9,-278.3 1382.9,-281.8 1392.9,-285.3 1392.9,-278.3"/>
</g>
<!-- ProductCategoryModule -->
<g id="node11" class="node">
<title>ProductCategoryModule</title>
<polygon fill="#8dd3c7" stroke="black" points="1960.42,-160.8 1957.42,-164.8 1936.42,-164.8 1933.42,-160.8 1805.58,-160.8 1805.58,-124.8 1960.42,-124.8 1960.42,-160.8"/>
<text text-anchor="middle" x="1883" y="-138.6" font-family="Times,serif" font-size="14.00">ProductCategoryModule</text>
</g>
<!-- ProductCategoryModule&#45;&gt;AppModule -->
<g id="edge11" class="edge">
<title>ProductCategoryModule&#45;&gt;AppModule</title>
<path fill="none" stroke="black" d="M1883,-161.04C1883,-199.79 1883,-286.8 1883,-286.8 1883,-286.8 1393.08,-286.8 1393.08,-286.8"/>
<polygon fill="black" stroke="black" points="1393.08,-283.3 1383.08,-286.8 1393.08,-290.3 1393.08,-283.3"/>
</g>
<!-- ProductModule -->
<g id="node12" class="node">
<title>ProductModule</title>
<polygon fill="#8dd3c7" stroke="black" points="2081.6,-160.8 2078.6,-164.8 2057.6,-164.8 2054.6,-160.8 1978.4,-160.8 1978.4,-124.8 2081.6,-124.8 2081.6,-160.8"/>
<text text-anchor="middle" x="2030" y="-138.6" font-family="Times,serif" font-size="14.00">ProductModule</text>
</g>
<!-- ProductModule&#45;&gt;AppModule -->
<g id="edge12" class="edge">
<title>ProductModule&#45;&gt;AppModule</title>
<path fill="none" stroke="black" d="M2030,-161.07C2030,-200.86 2030,-291.8 2030,-291.8 2030,-291.8 1392.81,-291.8 1392.81,-291.8"/>
<polygon fill="black" stroke="black" points="1392.81,-288.3 1382.81,-291.8 1392.81,-295.3 1392.81,-288.3"/>
</g>
<!-- UserModule -->
<g id="node13" class="node">
<title>UserModule</title>
<polygon fill="#8dd3c7" stroke="black" points="2185.99,-160.8 2182.99,-164.8 2161.99,-164.8 2158.99,-160.8 2100.01,-160.8 2100.01,-124.8 2185.99,-124.8 2185.99,-160.8"/>
<text text-anchor="middle" x="2143" y="-138.6" font-family="Times,serif" font-size="14.00">UserModule</text>
</g>
<!-- UserModule&#45;&gt;AuthModule -->
<g id="edge15" class="edge">
<title>UserModule&#45;&gt;AuthModule</title>
<path fill="none" stroke="black" d="M2121.5,-161.11C2121.5,-180.95 2121.5,-209.8 2121.5,-209.8 2121.5,-209.8 1024.7,-209.8 1024.7,-209.8"/>
<polygon fill="black" stroke="black" points="1024.7,-206.3 1014.7,-209.8 1024.7,-213.3 1024.7,-206.3"/>
</g>
<!-- UserModule&#45;&gt;AppModule -->
<g id="edge13" class="edge">
<title>UserModule&#45;&gt;AppModule</title>
<path fill="none" stroke="black" d="M2143,-161.07C2143,-201.86 2143,-296.8 2143,-296.8 2143,-296.8 1392.71,-296.8 1392.71,-296.8"/>
<polygon fill="black" stroke="black" points="1392.71,-293.3 1382.71,-296.8 1392.71,-300.3 1392.71,-293.3"/>
</g>
<!-- UserService  -->
<g id="node28" class="node">
<title>UserService </title>
<polygon fill="#fb8072" stroke="black" points="2453.91,-236.8 2366.09,-236.8 2366.09,-200.8 2453.91,-200.8 2453.91,-236.8"/>
<text text-anchor="middle" x="2410" y="-214.6" font-family="Times,serif" font-size="14.00">UserService </text>
</g>
<!-- UserModule&#45;&gt;UserService  -->
<g id="edge28" class="edge">
<title>UserModule&#45;&gt;UserService </title>
<path fill="none" stroke="black" stroke-dasharray="5,2" d="M2186.14,-142.8C2262.04,-142.8 2411.5,-142.8 2411.5,-142.8 2411.5,-142.8 2411.5,-190.79 2411.5,-190.79"/>
<polygon fill="black" stroke="black" points="2408,-190.79 2411.5,-200.79 2415,-190.79 2408,-190.79"/>
</g>
<!-- AppService -->
<g id="node15" class="node">
<title>AppService</title>
<ellipse fill="#fdb462" stroke="black" cx="846" cy="-218.8" rx="56.75" ry="18"/>
<text text-anchor="middle" x="846" y="-214.6" font-family="Times,serif" font-size="14.00">AppService</text>
</g>
<!-- AppService&#45;&gt;AppModule -->
<g id="edge14" class="edge">
<title>AppService&#45;&gt;AppModule</title>
<path fill="none" stroke="black" d="M846,-237.08C846,-258.12 846,-289.8 846,-289.8 846,-289.8 1289.22,-289.8 1289.22,-289.8"/>
<polygon fill="black" stroke="black" points="1289.22,-293.3 1299.22,-289.8 1289.22,-286.3 1289.22,-293.3"/>
</g>
<!-- AccessTokenStrategy -->
<g id="node16" class="node">
<title>AccessTokenStrategy</title>
<ellipse fill="#fdb462" stroke="black" cx="440" cy="-142.8" rx="95.48" ry="18"/>
<text text-anchor="middle" x="440" y="-138.6" font-family="Times,serif" font-size="14.00">AccessTokenStrategy</text>
</g>
<!-- AccessTokenStrategy&#45;&gt;AuthModule -->
<g id="edge16" class="edge">
<title>AccessTokenStrategy&#45;&gt;AuthModule</title>
<path fill="none" stroke="black" d="M440,-161.04C440,-168.23 440,-174.8 440,-174.8 440,-174.8 985.63,-174.8 985.63,-174.8 985.63,-174.8 985.63,-190.65 985.63,-190.65"/>
<polygon fill="black" stroke="black" points="982.13,-190.65 985.63,-200.65 989.13,-190.65 982.13,-190.65"/>
</g>
<!-- AuthService -->
<g id="node17" class="node">
<title>AuthService</title>
<ellipse fill="#fdb462" stroke="black" cx="267" cy="-142.8" rx="59.11" ry="18"/>
<text text-anchor="middle" x="267" y="-138.6" font-family="Times,serif" font-size="14.00">AuthService</text>
</g>
<!-- AuthService&#45;&gt;AuthModule -->
<g id="edge17" class="edge">
<title>AuthService&#45;&gt;AuthModule</title>
<path fill="none" stroke="black" d="M267,-160.84C267,-173.36 267,-187.8 267,-187.8 267,-187.8 956.49,-187.8 956.49,-187.8 956.49,-187.8 956.49,-190.77 956.49,-190.77"/>
<polygon fill="black" stroke="black" points="952.99,-190.77 956.49,-200.77 959.99,-190.77 952.99,-190.77"/>
</g>
<!-- RefreshTokenStrategy -->
<g id="node18" class="node">
<title>RefreshTokenStrategy</title>
<ellipse fill="#fdb462" stroke="black" cx="651" cy="-142.8" rx="97.84" ry="18"/>
<text text-anchor="middle" x="651" y="-138.6" font-family="Times,serif" font-size="14.00">RefreshTokenStrategy</text>
</g>
<!-- RefreshTokenStrategy&#45;&gt;AuthModule -->
<g id="edge18" class="edge">
<title>RefreshTokenStrategy&#45;&gt;AuthModule</title>
<path fill="none" stroke="black" d="M743.68,-148.8C819.73,-148.8 914.92,-148.8 914.92,-148.8 914.92,-148.8 914.92,-218.8 914.92,-218.8 914.92,-218.8 917.37,-218.8 917.37,-218.8"/>
<polygon fill="black" stroke="black" points="917.37,-222.3 927.37,-218.8 917.37,-215.3 917.37,-222.3"/>
</g>
<!-- CartItemService -->
<g id="node19" class="node">
<title>CartItemService</title>
<ellipse fill="#fdb462" stroke="black" cx="749" cy="-66.8" rx="74.13" ry="18"/>
<text text-anchor="middle" x="749" y="-62.6" font-family="Times,serif" font-size="14.00">CartItemService</text>
</g>
<!-- CartItemService&#45;&gt;CartItemModule -->
<g id="edge19" class="edge">
<title>CartItemService&#45;&gt;CartItemModule</title>
<path fill="none" stroke="black" d="M806.35,-78.36C806.35,-98.24 806.35,-136.8 806.35,-136.8 806.35,-136.8 916.9,-136.8 916.9,-136.8"/>
<polygon fill="black" stroke="black" points="916.9,-140.3 926.9,-136.8 916.9,-133.3 916.9,-140.3"/>
</g>
<!-- CartService -->
<g id="node20" class="node">
<title>CartService</title>
<ellipse fill="#fdb462" stroke="black" cx="920" cy="-66.8" rx="56.74" ry="18"/>
<text text-anchor="middle" x="920" y="-62.6" font-family="Times,serif" font-size="14.00">CartService</text>
</g>
<!-- CartService&#45;&gt;CartModule -->
<g id="edge20" class="edge">
<title>CartService&#45;&gt;CartModule</title>
<path fill="none" stroke="black" d="M951.98,-81.78C951.98,-94.87 951.98,-111.8 951.98,-111.8 951.98,-111.8 1096,-111.8 1096,-111.8 1096,-111.8 1096,-114.77 1096,-114.77"/>
<polygon fill="black" stroke="black" points="1092.5,-114.77 1096,-124.77 1099.5,-114.77 1092.5,-114.77"/>
</g>
<!-- CartTypeService -->
<g id="node21" class="node">
<title>CartTypeService</title>
<ellipse fill="#fdb462" stroke="black" cx="1093" cy="-66.8" rx="76.42" ry="18"/>
<text text-anchor="middle" x="1093" y="-62.6" font-family="Times,serif" font-size="14.00">CartTypeService</text>
</g>
<!-- CartTypeService&#45;&gt;CartTypeModule -->
<g id="edge21" class="edge">
<title>CartTypeService&#45;&gt;CartTypeModule</title>
<path fill="none" stroke="black" d="M1162.63,-74.37C1162.63,-74.37 1162.63,-114.68 1162.63,-114.68"/>
<polygon fill="black" stroke="black" points="1159.13,-114.68 1162.63,-124.68 1166.13,-114.68 1159.13,-114.68"/>
</g>
<!-- ExampleService -->
<g id="node22" class="node">
<title>ExampleService</title>
<ellipse fill="#fdb462" stroke="black" cx="1283" cy="-66.8" rx="74.13" ry="18"/>
<text text-anchor="middle" x="1283" y="-62.6" font-family="Times,serif" font-size="14.00">ExampleService</text>
</g>
<!-- ExampleService&#45;&gt;ExampleModule -->
<g id="edge22" class="edge">
<title>ExampleService&#45;&gt;ExampleModule</title>
<path fill="none" stroke="black" d="M1321.83,-82.18C1321.83,-82.18 1321.83,-114.77 1321.83,-114.77"/>
<polygon fill="black" stroke="black" points="1318.33,-114.77 1321.83,-124.77 1325.33,-114.77 1318.33,-114.77"/>
</g>
<!-- OrderService -->
<g id="node23" class="node">
<title>OrderService</title>
<ellipse fill="#fdb462" stroke="black" cx="1460" cy="-66.8" rx="62.53" ry="18"/>
<text text-anchor="middle" x="1460" y="-62.6" font-family="Times,serif" font-size="14.00">OrderService</text>
</g>
<!-- OrderService&#45;&gt;OrderModule -->
<g id="edge23" class="edge">
<title>OrderService&#45;&gt;OrderModule</title>
<path fill="none" stroke="black" d="M1460,-84.81C1460,-84.81 1460,-114.65 1460,-114.65"/>
<polygon fill="black" stroke="black" points="1456.5,-114.65 1460,-124.65 1463.5,-114.65 1456.5,-114.65"/>
</g>
<!-- PaymentService -->
<g id="node24" class="node">
<title>PaymentService</title>
<ellipse fill="#fdb462" stroke="black" cx="1637" cy="-66.8" rx="73.58" ry="18"/>
<text text-anchor="middle" x="1637" y="-62.6" font-family="Times,serif" font-size="14.00">PaymentService</text>
</g>
<!-- PaymentService&#45;&gt;PaymentModule -->
<g id="edge24" class="edge">
<title>PaymentService&#45;&gt;PaymentModule</title>
<path fill="none" stroke="black" d="M1597.74,-82.18C1597.74,-82.18 1597.74,-114.77 1597.74,-114.77"/>
<polygon fill="black" stroke="black" points="1594.24,-114.77 1597.74,-124.77 1601.24,-114.77 1594.24,-114.77"/>
</g>
<!-- PaymentTypeService -->
<g id="node25" class="node">
<title>PaymentTypeService</title>
<ellipse fill="#fdb462" stroke="black" cx="1845" cy="-66.8" rx="93.76" ry="18"/>
<text text-anchor="middle" x="1845" y="-62.6" font-family="Times,serif" font-size="14.00">PaymentTypeService</text>
</g>
<!-- PaymentTypeService&#45;&gt;PaymentTypeModule -->
<g id="edge25" class="edge">
<title>PaymentTypeService&#45;&gt;PaymentTypeModule</title>
<path fill="none" stroke="black" d="M1769.51,-77.69C1769.51,-77.69 1769.51,-114.59 1769.51,-114.59"/>
<polygon fill="black" stroke="black" points="1766.01,-114.59 1769.51,-124.59 1773.01,-114.59 1766.01,-114.59"/>
</g>
<!-- ProductCategoryService -->
<g id="node26" class="node">
<title>ProductCategoryService</title>
<ellipse fill="#fdb462" stroke="black" cx="2084" cy="-66.8" rx="105.36" ry="18"/>
<text text-anchor="middle" x="2084" y="-62.6" font-family="Times,serif" font-size="14.00">ProductCategoryService</text>
</g>
<!-- ProductCategoryService&#45;&gt;ProductCategoryModule -->
<g id="edge26" class="edge">
<title>ProductCategoryService&#45;&gt;ProductCategoryModule</title>
<path fill="none" stroke="black" d="M1978.29,-66.8C1961.44,-66.8 1949.42,-66.8 1949.42,-66.8 1949.42,-66.8 1949.42,-114.79 1949.42,-114.79"/>
<polygon fill="black" stroke="black" points="1945.92,-114.79 1949.42,-124.79 1952.92,-114.79 1945.92,-114.79"/>
</g>
<!-- ProductService -->
<g id="node27" class="node">
<title>ProductService</title>
<ellipse fill="#fdb462" stroke="black" cx="2299" cy="-66.8" rx="70.07" ry="18"/>
<text text-anchor="middle" x="2299" y="-62.6" font-family="Times,serif" font-size="14.00">ProductService</text>
</g>
<!-- ProductService&#45;&gt;ProductModule -->
<g id="edge27" class="edge">
<title>ProductService&#45;&gt;ProductModule</title>
<path fill="none" stroke="black" d="M2285.6,-84.67C2285.6,-92 2285.6,-98.8 2285.6,-98.8 2285.6,-98.8 2030.06,-98.8 2030.06,-98.8 2030.06,-98.8 2030.06,-114.65 2030.06,-114.65"/>
<polygon fill="black" stroke="black" points="2026.56,-114.65 2030.06,-124.65 2033.56,-114.65 2026.56,-114.65"/>
</g>
<!-- UserService -->
<g id="node29" class="node">
<title>UserService</title>
<ellipse fill="#fdb462" stroke="black" cx="2284" cy="-218.8" rx="58.46" ry="18"/>
<text text-anchor="middle" x="2284" y="-214.6" font-family="Times,serif" font-size="14.00">UserService</text>
</g>
<!-- UserService&#45;&gt;UserModule -->
<g id="edge29" class="edge">
<title>UserService&#45;&gt;UserModule</title>
<path fill="none" stroke="black" d="M2233.32,-227.8C2200.75,-227.8 2164.5,-227.8 2164.5,-227.8 2164.5,-227.8 2164.5,-170.83 2164.5,-170.83"/>
<polygon fill="black" stroke="black" points="2168,-170.83 2164.5,-160.83 2161,-170.83 2168,-170.83"/>
</g>
</g>
</svg>
