<?xml version="1.0" encoding="UTF-8" standalone="no"?>
<!DOCTYPE svg PUBLIC "-//W3C//DTD SVG 1.1//EN"
 "http://www.w3.org/Graphics/SVG/1.1/DTD/svg11.dtd">
<!-- Generated by graphviz version 5.0.0 (20220707.1540)
 -->
<!-- Title: dependencies Pages: 1 -->
<svg width="5141pt" height="337pt"
 viewBox="0.00 0.00 5141.00 336.80" xmlns="http://www.w3.org/2000/svg" xmlns:xlink="http://www.w3.org/1999/xlink">
<g id="graph0" class="graph" transform="scale(1 1) rotate(0) translate(4 332.8)">
<title>dependencies</title>
<polygon fill="white" stroke="transparent" points="-4,4 -4,-332.8 5137,-332.8 5137,4 -4,4"/>
<text text-anchor="middle" x="2566.5" y="-8.2" font-family="sans-serif" font-size="14.00">dependencies</text>
<g id="clust1" class="cluster">
<title>cluster_AddressModule</title>
<polygon fill="none" stroke="black" stroke-dasharray="1,5" points="4949,-108.8 4949,-320.8 5125,-320.8 5125,-108.8 4949,-108.8"/>
</g>
<g id="clust4" class="cluster">
<title>cluster_AddressModule_exports</title>
<polygon fill="none" stroke="black" points="4966,-260.8 4966,-312.8 5090,-312.8 5090,-260.8 4966,-260.8"/>
</g>
<g id="clust6" class="cluster">
<title>cluster_AddressModule_providers</title>
<polygon fill="none" stroke="black" points="4957,-116.8 4957,-168.8 5117,-168.8 5117,-116.8 4957,-116.8"/>
</g>
<g id="clust7" class="cluster">
<title>cluster_AppModule</title>
<polygon fill="none" stroke="black" stroke-dasharray="1,5" points="589,-108.8 589,-312.8 2017,-312.8 2017,-108.8 589,-108.8"/>
</g>
<g id="clust9" class="cluster">
<title>cluster_AppModule_imports</title>
<polygon fill="none" stroke="black" points="735,-116.8 735,-244.8 2009,-244.8 2009,-116.8 735,-116.8"/>
</g>
<g id="clust12" class="cluster">
<title>cluster_AppModule_providers</title>
<polygon fill="none" stroke="black" points="597,-192.8 597,-244.8 727,-244.8 727,-192.8 597,-192.8"/>
</g>
<g id="clust13" class="cluster">
<title>cluster_AuthModule</title>
<polygon fill="none" stroke="black" stroke-dasharray="1,5" points="8,-108.8 8,-176.8 581,-176.8 581,-108.8 8,-108.8"/>
</g>
<g id="clust18" class="cluster">
<title>cluster_AuthModule_providers</title>
<polygon fill="none" stroke="black" points="16,-116.8 16,-168.8 573,-168.8 573,-116.8 16,-116.8"/>
</g>
<g id="clust19" class="cluster">
<title>cluster_CartItemModule</title>
<polygon fill="none" stroke="black" stroke-dasharray="1,5" points="2025,-184.8 2025,-252.8 2341,-252.8 2341,-184.8 2025,-184.8"/>
</g>
<g id="clust22" class="cluster">
<title>cluster_CartItemModule_exports</title>
<polygon fill="none" stroke="black" points="2205,-192.8 2205,-244.8 2333,-244.8 2333,-192.8 2205,-192.8"/>
</g>
<g id="clust24" class="cluster">
<title>cluster_CartItemModule_providers</title>
<polygon fill="none" stroke="black" points="2033,-192.8 2033,-244.8 2197,-244.8 2197,-192.8 2033,-192.8"/>
</g>
<g id="clust25" class="cluster">
<title>cluster_CartModule</title>
<polygon fill="none" stroke="black" stroke-dasharray="1,5" points="2349,-184.8 2349,-252.8 2605,-252.8 2605,-184.8 2349,-184.8"/>
</g>
<g id="clust28" class="cluster">
<title>cluster_CartModule_exports</title>
<polygon fill="none" stroke="black" points="2495,-192.8 2495,-244.8 2597,-244.8 2597,-192.8 2495,-192.8"/>
</g>
<g id="clust30" class="cluster">
<title>cluster_CartModule_providers</title>
<polygon fill="none" stroke="black" points="2357,-192.8 2357,-244.8 2487,-244.8 2487,-192.8 2357,-192.8"/>
</g>
<g id="clust31" class="cluster">
<title>cluster_CartTypeModule</title>
<polygon fill="none" stroke="black" stroke-dasharray="1,5" points="2613,-184.8 2613,-252.8 2935,-252.8 2935,-184.8 2613,-184.8"/>
</g>
<g id="clust34" class="cluster">
<title>cluster_CartTypeModule_exports</title>
<polygon fill="none" stroke="black" points="2797,-192.8 2797,-244.8 2927,-244.8 2927,-192.8 2797,-192.8"/>
</g>
<g id="clust36" class="cluster">
<title>cluster_CartTypeModule_providers</title>
<polygon fill="none" stroke="black" points="2621,-192.8 2621,-244.8 2789,-244.8 2789,-192.8 2621,-192.8"/>
</g>
<g id="clust37" class="cluster">
<title>cluster_ExampleModule</title>
<polygon fill="none" stroke="black" stroke-dasharray="1,5" points="708,-32.8 708,-100.8 888,-100.8 888,-32.8 708,-32.8"/>
</g>
<g id="clust42" class="cluster">
<title>cluster_ExampleModule_providers</title>
<polygon fill="none" stroke="black" points="716,-40.8 716,-92.8 880,-92.8 880,-40.8 716,-40.8"/>
</g>
<g id="clust43" class="cluster">
<title>cluster_OrderModule</title>
<polygon fill="none" stroke="black" stroke-dasharray="1,5" points="2943,-184.8 2943,-252.8 3219,-252.8 3219,-184.8 2943,-184.8"/>
</g>
<g id="clust46" class="cluster">
<title>cluster_OrderModule_exports</title>
<polygon fill="none" stroke="black" points="3101,-192.8 3101,-244.8 3211,-244.8 3211,-192.8 3101,-192.8"/>
</g>
<g id="clust48" class="cluster">
<title>cluster_OrderModule_providers</title>
<polygon fill="none" stroke="black" points="2951,-192.8 2951,-244.8 3093,-244.8 3093,-192.8 2951,-192.8"/>
</g>
<g id="clust49" class="cluster">
<title>cluster_PaymentModule</title>
<polygon fill="none" stroke="black" stroke-dasharray="1,5" points="3227,-184.8 3227,-252.8 3541,-252.8 3541,-184.8 3227,-184.8"/>
</g>
<g id="clust52" class="cluster">
<title>cluster_PaymentModule_exports</title>
<polygon fill="none" stroke="black" points="3407,-192.8 3407,-244.8 3533,-244.8 3533,-192.8 3407,-192.8"/>
</g>
<g id="clust54" class="cluster">
<title>cluster_PaymentModule_providers</title>
<polygon fill="none" stroke="black" points="3235,-192.8 3235,-244.8 3399,-244.8 3399,-192.8 3235,-192.8"/>
</g>
<g id="clust55" class="cluster">
<title>cluster_PaymentTypeModule</title>
<polygon fill="none" stroke="black" stroke-dasharray="1,5" points="3549,-184.8 3549,-252.8 3933,-252.8 3933,-184.8 3549,-184.8"/>
</g>
<g id="clust58" class="cluster">
<title>cluster_PaymentTypeModule_exports</title>
<polygon fill="none" stroke="black" points="3769,-192.8 3769,-244.8 3925,-244.8 3925,-192.8 3769,-192.8"/>
</g>
<g id="clust60" class="cluster">
<title>cluster_PaymentTypeModule_providers</title>
<polygon fill="none" stroke="black" points="3557,-192.8 3557,-244.8 3761,-244.8 3761,-192.8 3557,-192.8"/>
</g>
<g id="clust61" class="cluster">
<title>cluster_ProductCategoryModule</title>
<polygon fill="none" stroke="black" stroke-dasharray="1,5" points="3941,-184.8 3941,-252.8 4363,-252.8 4363,-184.8 3941,-184.8"/>
</g>
<g id="clust64" class="cluster">
<title>cluster_ProductCategoryModule_exports</title>
<polygon fill="none" stroke="black" points="4183,-192.8 4183,-244.8 4355,-244.8 4355,-192.8 4183,-192.8"/>
</g>
<g id="clust66" class="cluster">
<title>cluster_ProductCategoryModule_providers</title>
<polygon fill="none" stroke="black" points="3949,-192.8 3949,-244.8 4175,-244.8 4175,-192.8 3949,-192.8"/>
</g>
<g id="clust67" class="cluster">
<title>cluster_ProductModule</title>
<polygon fill="none" stroke="black" stroke-dasharray="1,5" points="4371,-184.8 4371,-252.8 4673,-252.8 4673,-184.8 4371,-184.8"/>
</g>
<g id="clust70" class="cluster">
<title>cluster_ProductModule_exports</title>
<polygon fill="none" stroke="black" points="4543,-192.8 4543,-244.8 4665,-244.8 4665,-192.8 4543,-192.8"/>
</g>
<g id="clust72" class="cluster">
<title>cluster_ProductModule_providers</title>
<polygon fill="none" stroke="black" points="4379,-192.8 4379,-244.8 4535,-244.8 4535,-192.8 4379,-192.8"/>
</g>
<g id="clust73" class="cluster">
<title>cluster_UserModule</title>
<polygon fill="none" stroke="black" stroke-dasharray="1,5" points="4681,-184.8 4681,-252.8 4941,-252.8 4941,-184.8 4681,-184.8"/>
</g>
<g id="clust76" class="cluster">
<title>cluster_UserModule_exports</title>
<polygon fill="none" stroke="black" points="4829,-192.8 4829,-244.8 4933,-244.8 4933,-192.8 4829,-192.8"/>
</g>
<g id="clust78" class="cluster">
<title>cluster_UserModule_providers</title>
<polygon fill="none" stroke="black" points="4689,-192.8 4689,-244.8 4821,-244.8 4821,-192.8 4689,-192.8"/>
</g>
<!-- AddressService  -->
<g id="node1" class="node">
<title>AddressService </title>
<polygon fill="#fb8072" stroke="black" points="5081.86,-304.8 4974.14,-304.8 4974.14,-268.8 5081.86,-268.8 5081.86,-304.8"/>
<text text-anchor="middle" x="5028" y="-282.6" font-family="Times,serif" font-size="14.00">AddressService </text>
</g>
<!-- AddressModule -->
<g id="node2" class="node">
<title>AddressModule</title>
<polygon fill="#8dd3c7" stroke="black" points="5080.94,-236.8 5077.94,-240.8 5056.94,-240.8 5053.94,-236.8 4975.06,-236.8 4975.06,-200.8 5080.94,-200.8 5080.94,-236.8"/>
<text text-anchor="middle" x="5028" y="-214.6" font-family="Times,serif" font-size="14.00">AddressModule</text>
</g>
<!-- AddressModule&#45;&gt;AddressService  -->
<g id="edge1" class="edge">
<title>AddressModule&#45;&gt;AddressService </title>
<path fill="none" stroke="black" stroke-dasharray="5,2" d="M5028,-237.02C5028,-237.02 5028,-258.53 5028,-258.53"/>
<polygon fill="black" stroke="black" points="5024.5,-258.53 5028,-268.53 5031.5,-258.53 5024.5,-258.53"/>
</g>
<!-- AppModule -->
<g id="node15" class="node">
<title>AppModule</title>
<polygon fill="#8dd3c7" stroke="black" points="1316.66,-304.8 1313.66,-308.8 1292.66,-308.8 1289.66,-304.8 1233.34,-304.8 1233.34,-268.8 1316.66,-268.8 1316.66,-304.8"/>
<text text-anchor="middle" x="1275" y="-282.6" font-family="Times,serif" font-size="14.00">AppModule</text>
</g>
<!-- AddressModule&#45;&gt;AppModule -->
<g id="edge3" class="edge">
<title>AddressModule&#45;&gt;AppModule</title>
<path fill="none" stroke="black" d="M4975.21,-218.8C4971.88,-218.8 4969.84,-218.8 4969.84,-218.8 4969.84,-218.8 4969.84,-299.8 4969.84,-299.8 4969.84,-299.8 1326.81,-299.8 1326.81,-299.8"/>
<polygon fill="black" stroke="black" points="1326.81,-296.3 1316.81,-299.8 1326.81,-303.3 1326.81,-296.3"/>
</g>
<!-- AddressService -->
<g id="node3" class="node">
<title>AddressService</title>
<ellipse fill="#fdb462" stroke="black" cx="5037" cy="-142.8" rx="71.78" ry="18"/>
<text text-anchor="middle" x="5037" y="-138.6" font-family="Times,serif" font-size="14.00">AddressService</text>
</g>
<!-- AddressService&#45;&gt;AddressModule -->
<g id="edge2" class="edge">
<title>AddressService&#45;&gt;AddressModule</title>
<path fill="none" stroke="black" d="M5028,-160.81C5028,-160.81 5028,-190.65 5028,-190.65"/>
<polygon fill="black" stroke="black" points="5024.5,-190.65 5028,-200.65 5031.5,-190.65 5024.5,-190.65"/>
</g>
<!-- AuthModule -->
<g id="node4" class="node">
<title>AuthModule</title>
<polygon fill="#8dd3c7" stroke="black" points="830.55,-236.8 827.55,-240.8 806.55,-240.8 803.55,-236.8 743.45,-236.8 743.45,-200.8 830.55,-200.8 830.55,-236.8"/>
<text text-anchor="middle" x="787" y="-214.6" font-family="Times,serif" font-size="14.00">AuthModule</text>
</g>
<!-- AuthModule&#45;&gt;AppModule -->
<g id="edge4" class="edge">
<title>AuthModule&#45;&gt;AppModule</title>
<path fill="none" stroke="black" d="M830.61,-227.8C951.74,-227.8 1283.37,-227.8 1283.37,-227.8 1283.37,-227.8 1283.37,-258.78 1283.37,-258.78"/>
<polygon fill="black" stroke="black" points="1279.87,-258.78 1283.37,-268.78 1286.87,-258.78 1279.87,-258.78"/>
</g>
<!-- CartItemModule -->
<g id="node5" class="node">
<title>CartItemModule</title>
<polygon fill="#8dd3c7" stroke="black" points="979.81,-160.8 976.81,-164.8 955.81,-164.8 952.81,-160.8 870.19,-160.8 870.19,-124.8 979.81,-124.8 979.81,-160.8"/>
<text text-anchor="middle" x="925" y="-138.6" font-family="Times,serif" font-size="14.00">CartItemModule</text>
</g>
<!-- CartItemModule&#45;&gt;AppModule -->
<g id="edge5" class="edge">
<title>CartItemModule&#45;&gt;AppModule</title>
<path fill="none" stroke="black" d="M925,-161.04C925,-199.79 925,-286.8 925,-286.8 925,-286.8 1223.13,-286.8 1223.13,-286.8"/>
<polygon fill="black" stroke="black" points="1223.13,-290.3 1233.13,-286.8 1223.13,-283.3 1223.13,-290.3"/>
</g>
<!-- CartItemService  -->
<g id="node20" class="node">
<title>CartItemService </title>
<polygon fill="#fb8072" stroke="black" points="2324.74,-236.8 2213.26,-236.8 2213.26,-200.8 2324.74,-200.8 2324.74,-236.8"/>
<text text-anchor="middle" x="2269" y="-214.6" font-family="Times,serif" font-size="14.00">CartItemService </text>
</g>
<!-- CartItemModule&#45;&gt;CartItemService  -->
<g id="edge20" class="edge">
<title>CartItemModule&#45;&gt;CartItemService </title>
<path fill="none" stroke="black" stroke-dasharray="5,2" d="M897.67,-160.99C897.67,-175.98 897.67,-194.8 897.67,-194.8 897.67,-194.8 2269,-194.8 2269,-194.8 2269,-194.8 2269,-195.38 2269,-195.38"/>
<polygon fill="black" stroke="black" points="2265.5,-190.61 2269,-200.61 2272.5,-190.61 2265.5,-190.61"/>
</g>
<!-- CartModule -->
<g id="node6" class="node">
<title>CartModule</title>
<polygon fill="#8dd3c7" stroke="black" points="1080.66,-160.8 1077.66,-164.8 1056.66,-164.8 1053.66,-160.8 997.34,-160.8 997.34,-124.8 1080.66,-124.8 1080.66,-160.8"/>
<text text-anchor="middle" x="1039" y="-138.6" font-family="Times,serif" font-size="14.00">CartModule</text>
</g>
<!-- CartModule&#45;&gt;AppModule -->
<g id="edge6" class="edge">
<title>CartModule&#45;&gt;AppModule</title>
<path fill="none" stroke="black" d="M1059.91,-160.84C1059.91,-198.25 1059.91,-280.8 1059.91,-280.8 1059.91,-280.8 1223.27,-280.8 1223.27,-280.8"/>
<polygon fill="black" stroke="black" points="1223.27,-284.3 1233.27,-280.8 1223.27,-277.3 1223.27,-284.3"/>
</g>
<!-- CartService  -->
<g id="node22" class="node">
<title>CartService </title>
<polygon fill="#fb8072" stroke="black" points="2588.58,-236.8 2503.42,-236.8 2503.42,-200.8 2588.58,-200.8 2588.58,-236.8"/>
<text text-anchor="middle" x="2546" y="-214.6" font-family="Times,serif" font-size="14.00">CartService </text>
</g>
<!-- CartModule&#45;&gt;CartService  -->
<g id="edge22" class="edge">
<title>CartModule&#45;&gt;CartService </title>
<path fill="none" stroke="black" stroke-dasharray="5,2" d="M1018.09,-160.84C1018.09,-174.09 1018.09,-189.8 1018.09,-189.8 1018.09,-189.8 2546,-189.8 2546,-189.8 2546,-189.8 2546,-190.88 2546,-190.88"/>
<polygon fill="black" stroke="black" points="2542.5,-190.6 2546,-200.6 2549.5,-190.6 2542.5,-190.6"/>
</g>
<!-- CartTypeModule -->
<g id="node7" class="node">
<title>CartTypeModule</title>
<polygon fill="#8dd3c7" stroke="black" points="1211.42,-160.8 1208.42,-164.8 1187.42,-164.8 1184.42,-160.8 1098.58,-160.8 1098.58,-124.8 1211.42,-124.8 1211.42,-160.8"/>
<text text-anchor="middle" x="1155" y="-138.6" font-family="Times,serif" font-size="14.00">CartTypeModule</text>
</g>
<!-- CartTypeModule&#45;&gt;AppModule -->
<g id="edge7" class="edge">
<title>CartTypeModule&#45;&gt;AppModule</title>
<path fill="none" stroke="black" d="M1183.11,-160.88C1183.11,-197.03 1183.11,-274.8 1183.11,-274.8 1183.11,-274.8 1223.09,-274.8 1223.09,-274.8"/>
<polygon fill="black" stroke="black" points="1223.09,-278.3 1233.09,-274.8 1223.09,-271.3 1223.09,-278.3"/>
</g>
<!-- CartTypeService  -->
<g id="node24" class="node">
<title>CartTypeService </title>
<polygon fill="#fb8072" stroke="black" points="2919.35,-236.8 2804.65,-236.8 2804.65,-200.8 2919.35,-200.8 2919.35,-236.8"/>
<text text-anchor="middle" x="2862" y="-214.6" font-family="Times,serif" font-size="14.00">CartTypeService </text>
</g>
<!-- CartTypeModule&#45;&gt;CartTypeService  -->
<g id="edge24" class="edge">
<title>CartTypeModule&#45;&gt;CartTypeService </title>
<path fill="none" stroke="black" stroke-dasharray="5,2" d="M1126.89,-161.29C1126.89,-172.94 1126.89,-185.8 1126.89,-185.8 1126.89,-185.8 2862,-185.8 2862,-185.8 2862,-185.8 2862,-190.76 2862,-190.76"/>
<polygon fill="black" stroke="black" points="2858.5,-190.76 2862,-200.76 2865.5,-190.76 2858.5,-190.76"/>
</g>
<!-- ExampleModule -->
<g id="node8" class="node">
<title>ExampleModule</title>
<polygon fill="#8dd3c7" stroke="black" points="852.81,-160.8 849.81,-164.8 828.81,-164.8 825.81,-160.8 743.19,-160.8 743.19,-124.8 852.81,-124.8 852.81,-160.8"/>
<text text-anchor="middle" x="798" y="-138.6" font-family="Times,serif" font-size="14.00">ExampleModule</text>
</g>
<!-- ExampleModule&#45;&gt;AppModule -->
<g id="edge8" class="edge">
<title>ExampleModule&#45;&gt;AppModule</title>
<path fill="none" stroke="black" d="M841.72,-160.89C841.72,-200.79 841.72,-292.8 841.72,-292.8 841.72,-292.8 1223.06,-292.8 1223.06,-292.8"/>
<polygon fill="black" stroke="black" points="1223.06,-296.3 1233.06,-292.8 1223.06,-289.3 1223.06,-296.3"/>
</g>
<!-- OrderModule -->
<g id="node9" class="node">
<title>OrderModule</title>
<polygon fill="#8dd3c7" stroke="black" points="1321.2,-160.8 1318.2,-164.8 1297.2,-164.8 1294.2,-160.8 1228.8,-160.8 1228.8,-124.8 1321.2,-124.8 1321.2,-160.8"/>
<text text-anchor="middle" x="1275" y="-138.6" font-family="Times,serif" font-size="14.00">OrderModule</text>
</g>
<!-- OrderModule&#45;&gt;AppModule -->
<g id="edge9" class="edge">
<title>OrderModule&#45;&gt;AppModule</title>
<path fill="none" stroke="black" d="M1300.1,-161.04C1300.1,-161.04 1300.1,-258.71 1300.1,-258.71"/>
<polygon fill="black" stroke="black" points="1296.6,-258.71 1300.1,-268.71 1303.6,-258.71 1296.6,-258.71"/>
</g>
<!-- OrderService  -->
<g id="node27" class="node">
<title>OrderService </title>
<polygon fill="#fb8072" stroke="black" points="3203.13,-236.8 3108.87,-236.8 3108.87,-200.8 3203.13,-200.8 3203.13,-236.8"/>
<text text-anchor="middle" x="3156" y="-214.6" font-family="Times,serif" font-size="14.00">OrderService </text>
</g>
<!-- OrderModule&#45;&gt;OrderService  -->
<g id="edge27" class="edge">
<title>OrderModule&#45;&gt;OrderService </title>
<path fill="none" stroke="black" stroke-dasharray="5,2" d="M1249.9,-160.91C1249.9,-170.7 1249.9,-180.8 1249.9,-180.8 1249.9,-180.8 3156,-180.8 3156,-180.8 3156,-180.8 3156,-190.69 3156,-190.69"/>
<polygon fill="black" stroke="black" points="3152.5,-190.69 3156,-200.69 3159.5,-190.69 3152.5,-190.69"/>
</g>
<!-- PaymentModule -->
<g id="node10" class="node">
<title>PaymentModule</title>
<polygon fill="#8dd3c7" stroke="black" points="1447.05,-160.8 1444.05,-164.8 1423.05,-164.8 1420.05,-160.8 1338.95,-160.8 1338.95,-124.8 1447.05,-124.8 1447.05,-160.8"/>
<text text-anchor="middle" x="1393" y="-138.6" font-family="Times,serif" font-size="14.00">PaymentModule</text>
</g>
<!-- PaymentModule&#45;&gt;AppModule -->
<g id="edge10" class="edge">
<title>PaymentModule&#45;&gt;AppModule</title>
<path fill="none" stroke="black" d="M1420.14,-160.88C1420.14,-197.03 1420.14,-274.8 1420.14,-274.8 1420.14,-274.8 1326.98,-274.8 1326.98,-274.8"/>
<polygon fill="black" stroke="black" points="1326.98,-271.3 1316.98,-274.8 1326.98,-278.3 1326.98,-271.3"/>
</g>
<!-- PaymentService  -->
<g id="node29" class="node">
<title>PaymentService </title>
<polygon fill="#fb8072" stroke="black" points="3525.47,-236.8 3414.53,-236.8 3414.53,-200.8 3525.47,-200.8 3525.47,-236.8"/>
<text text-anchor="middle" x="3470" y="-214.6" font-family="Times,serif" font-size="14.00">PaymentService </text>
</g>
<!-- PaymentModule&#45;&gt;PaymentService  -->
<g id="edge29" class="edge">
<title>PaymentModule&#45;&gt;PaymentService </title>
<path fill="none" stroke="black" stroke-dasharray="5,2" d="M1365.86,-160.99C1365.86,-169.08 1365.86,-176.8 1365.86,-176.8 1365.86,-176.8 3470,-176.8 3470,-176.8 3470,-176.8 3470,-190.74 3470,-190.74"/>
<polygon fill="black" stroke="black" points="3466.5,-190.74 3470,-200.74 3473.5,-190.74 3466.5,-190.74"/>
</g>
<!-- PaymentTypeModule -->
<g id="node11" class="node">
<title>PaymentTypeModule</title>
<polygon fill="#8dd3c7" stroke="black" points="1602.81,-160.8 1599.81,-164.8 1578.81,-164.8 1575.81,-160.8 1465.19,-160.8 1465.19,-124.8 1602.81,-124.8 1602.81,-160.8"/>
<text text-anchor="middle" x="1534" y="-138.6" font-family="Times,serif" font-size="14.00">PaymentTypeModule</text>
</g>
<!-- PaymentTypeModule&#45;&gt;AppModule -->
<g id="edge11" class="edge">
<title>PaymentTypeModule&#45;&gt;AppModule</title>
<path fill="none" stroke="black" d="M1568.33,-160.99C1568.33,-198.26 1568.33,-279.8 1568.33,-279.8 1568.33,-279.8 1326.72,-279.8 1326.72,-279.8"/>
<polygon fill="black" stroke="black" points="1326.72,-276.3 1316.72,-279.8 1326.72,-283.3 1326.72,-276.3"/>
</g>
<!-- PaymentTypeService  -->
<g id="node31" class="node">
<title>PaymentTypeService </title>
<polygon fill="#fb8072" stroke="black" points="3916.74,-236.8 3777.26,-236.8 3777.26,-200.8 3916.74,-200.8 3916.74,-236.8"/>
<text text-anchor="middle" x="3847" y="-214.6" font-family="Times,serif" font-size="14.00">PaymentTypeService </text>
</g>
<!-- PaymentTypeModule&#45;&gt;PaymentTypeService  -->
<g id="edge31" class="edge">
<title>PaymentTypeModule&#45;&gt;PaymentTypeService </title>
<path fill="none" stroke="black" stroke-dasharray="5,2" d="M1499.67,-160.94C1499.67,-167.26 1499.67,-172.8 1499.67,-172.8 1499.67,-172.8 3847,-172.8 3847,-172.8 3847,-172.8 3847,-190.62 3847,-190.62"/>
<polygon fill="black" stroke="black" points="3843.5,-190.62 3847,-200.62 3850.5,-190.62 3843.5,-190.62"/>
</g>
<!-- ProductCategoryModule -->
<g id="node12" class="node">
<title>ProductCategoryModule</title>
<polygon fill="#8dd3c7" stroke="black" points="1775.42,-160.8 1772.42,-164.8 1751.42,-164.8 1748.42,-160.8 1620.58,-160.8 1620.58,-124.8 1775.42,-124.8 1775.42,-160.8"/>
<text text-anchor="middle" x="1698" y="-138.6" font-family="Times,serif" font-size="14.00">ProductCategoryModule</text>
</g>
<!-- ProductCategoryModule&#45;&gt;AppModule -->
<g id="edge12" class="edge">
<title>ProductCategoryModule&#45;&gt;AppModule</title>
<path fill="none" stroke="black" d="M1736.61,-161.07C1736.61,-199.43 1736.61,-284.8 1736.61,-284.8 1736.61,-284.8 1326.78,-284.8 1326.78,-284.8"/>
<polygon fill="black" stroke="black" points="1326.78,-281.3 1316.78,-284.8 1326.78,-288.3 1326.78,-281.3"/>
</g>
<!-- ProductCategoryService  -->
<g id="node33" class="node">
<title>ProductCategoryService </title>
<polygon fill="#fb8072" stroke="black" points="4347.35,-236.8 4190.65,-236.8 4190.65,-200.8 4347.35,-200.8 4347.35,-236.8"/>
<text text-anchor="middle" x="4269" y="-214.6" font-family="Times,serif" font-size="14.00">ProductCategoryService </text>
</g>
<!-- ProductCategoryModule&#45;&gt;ProductCategoryService  -->
<g id="edge33" class="edge">
<title>ProductCategoryModule&#45;&gt;ProductCategoryService </title>
<path fill="none" stroke="black" stroke-dasharray="5,2" d="M1659.39,-160.97C1659.39,-164.85 1659.39,-167.8 1659.39,-167.8 1659.39,-167.8 4269,-167.8 4269,-167.8 4269,-167.8 4269,-190.68 4269,-190.68"/>
<polygon fill="black" stroke="black" points="4265.5,-190.68 4269,-200.68 4272.5,-190.68 4265.5,-190.68"/>
</g>
<!-- ProductModule -->
<g id="node13" class="node">
<title>ProductModule</title>
<polygon fill="#8dd3c7" stroke="black" points="1896.6,-160.8 1893.6,-164.8 1872.6,-164.8 1869.6,-160.8 1793.4,-160.8 1793.4,-124.8 1896.6,-124.8 1896.6,-160.8"/>
<text text-anchor="middle" x="1845" y="-138.6" font-family="Times,serif" font-size="14.00">ProductModule</text>
</g>
<!-- ProductModule&#45;&gt;AppModule -->
<g id="edge13" class="edge">
<title>ProductModule&#45;&gt;AppModule</title>
<path fill="none" stroke="black" d="M1870.78,-160.83C1870.78,-200.08 1870.78,-289.8 1870.78,-289.8 1870.78,-289.8 1326.89,-289.8 1326.89,-289.8"/>
<polygon fill="black" stroke="black" points="1326.89,-286.3 1316.89,-289.8 1326.89,-293.3 1326.89,-286.3"/>
</g>
<!-- ProductService  -->
<g id="node35" class="node">
<title>ProductService </title>
<polygon fill="#fb8072" stroke="black" points="4656.53,-236.8 4551.47,-236.8 4551.47,-200.8 4656.53,-200.8 4656.53,-236.8"/>
<text text-anchor="middle" x="4604" y="-214.6" font-family="Times,serif" font-size="14.00">ProductService </text>
</g>
<!-- ProductModule&#45;&gt;ProductService  -->
<g id="edge35" class="edge">
<title>ProductModule&#45;&gt;ProductService </title>
<path fill="none" stroke="black" stroke-dasharray="5,2" d="M1819.22,-160.88C1819.22,-162.65 1819.22,-163.8 1819.22,-163.8 1819.22,-163.8 4604,-163.8 4604,-163.8 4604,-163.8 4604,-190.79 4604,-190.79"/>
<polygon fill="black" stroke="black" points="4600.5,-190.79 4604,-200.79 4607.5,-190.79 4600.5,-190.79"/>
</g>
<!-- UserModule -->
<g id="node14" class="node">
<title>UserModule</title>
<polygon fill="#8dd3c7" stroke="black" points="2000.99,-160.8 1997.99,-164.8 1976.99,-164.8 1973.99,-160.8 1915.01,-160.8 1915.01,-124.8 2000.99,-124.8 2000.99,-160.8"/>
<text text-anchor="middle" x="1958" y="-138.6" font-family="Times,serif" font-size="14.00">UserModule</text>
</g>
<!-- UserModule&#45;&gt;AuthModule -->
<g id="edge16" class="edge">
<title>UserModule&#45;&gt;AuthModule</title>
<path fill="none" stroke="black" d="M1943.67,-160.81C1943.67,-183.29 1943.67,-218.8 1943.67,-218.8 1943.67,-218.8 840.58,-218.8 840.58,-218.8"/>
<polygon fill="black" stroke="black" points="840.58,-215.3 830.58,-218.8 840.58,-222.3 840.58,-215.3"/>
</g>
<!-- UserModule&#45;&gt;AppModule -->
<g id="edge14" class="edge">
<title>UserModule&#45;&gt;AppModule</title>
<path fill="none" stroke="black" d="M1972.33,-160.83C1972.33,-201.1 1972.33,-294.8 1972.33,-294.8 1972.33,-294.8 1326.79,-294.8 1326.79,-294.8"/>
<polygon fill="black" stroke="black" points="1326.79,-291.3 1316.79,-294.8 1326.79,-298.3 1326.79,-291.3"/>
</g>
<!-- UserService  -->
<g id="node37" class="node">
<title>UserService </title>
<polygon fill="#fb8072" stroke="black" points="4924.91,-236.8 4837.09,-236.8 4837.09,-200.8 4924.91,-200.8 4924.91,-236.8"/>
<text text-anchor="middle" x="4881" y="-214.6" font-family="Times,serif" font-size="14.00">UserService </text>
</g>
<!-- UserModule&#45;&gt;UserService  -->
<g id="edge37" class="edge">
<title>UserModule&#45;&gt;UserService </title>
<path fill="none" stroke="black" stroke-dasharray="5,2" d="M2001.02,-136.8C2362.55,-136.8 4881,-136.8 4881,-136.8 4881,-136.8 4881,-190.6 4881,-190.6"/>
<polygon fill="black" stroke="black" points="4877.5,-190.6 4881,-200.6 4884.5,-190.6 4877.5,-190.6"/>
</g>
<!-- AppService -->
<g id="node16" class="node">
<title>AppService</title>
<ellipse fill="#fdb462" stroke="black" cx="662" cy="-218.8" rx="56.75" ry="18"/>
<text text-anchor="middle" x="662" y="-214.6" font-family="Times,serif" font-size="14.00">AppService</text>
</g>
<!-- AppService&#45;&gt;AppModule -->
<g id="edge15" class="edge">
<title>AppService&#45;&gt;AppModule</title>
<path fill="none" stroke="black" d="M662,-236.95C662,-260.56 662,-298.8 662,-298.8 662,-298.8 1222.87,-298.8 1222.87,-298.8"/>
<polygon fill="black" stroke="black" points="1222.87,-302.3 1232.87,-298.8 1222.87,-295.3 1222.87,-302.3"/>
</g>
<!-- AccessTokenStrategy -->
<g id="node17" class="node">
<title>AccessTokenStrategy</title>
<ellipse fill="#fdb462" stroke="black" cx="470" cy="-142.8" rx="95.48" ry="18"/>
<text text-anchor="middle" x="470" y="-138.6" font-family="Times,serif" font-size="14.00">AccessTokenStrategy</text>
</g>
<!-- AccessTokenStrategy&#45;&gt;AuthModule -->
<g id="edge17" class="edge">
<title>AccessTokenStrategy&#45;&gt;AuthModule</title>
<path fill="none" stroke="black" d="M565.49,-142.8C640.88,-142.8 733.45,-142.8 733.45,-142.8 733.45,-142.8 733.45,-218.8 733.45,-218.8 733.45,-218.8 734.44,-218.8 734.44,-218.8"/>
<polygon fill="black" stroke="black" points="733.28,-222.3 743.28,-218.8 733.28,-215.3 733.28,-222.3"/>
</g>
<!-- AuthService -->
<g id="node18" class="node">
<title>AuthService</title>
<ellipse fill="#fdb462" stroke="black" cx="297" cy="-142.8" rx="59.11" ry="18"/>
<text text-anchor="middle" x="297" y="-138.6" font-family="Times,serif" font-size="14.00">AuthService</text>
</g>
<!-- AuthService&#45;&gt;AuthModule -->
<g id="edge18" class="edge">
<title>AuthService&#45;&gt;AuthModule</title>
<path fill="none" stroke="black" d="M297,-161.08C297,-176.75 297,-196.8 297,-196.8 297,-196.8 801.63,-196.8 801.63,-196.8 801.63,-196.8 801.63,-197.18 801.63,-197.18"/>
<polygon fill="black" stroke="black" points="798.13,-190.63 801.63,-200.63 805.13,-190.63 798.13,-190.63"/>
</g>
<!-- RefreshTokenStrategy -->
<g id="node19" class="node">
<title>RefreshTokenStrategy</title>
<ellipse fill="#fdb462" stroke="black" cx="122" cy="-142.8" rx="97.84" ry="18"/>
<text text-anchor="middle" x="122" y="-138.6" font-family="Times,serif" font-size="14.00">RefreshTokenStrategy</text>
</g>
<!-- RefreshTokenStrategy&#45;&gt;AuthModule -->
<g id="edge19" class="edge">
<title>RefreshTokenStrategy&#45;&gt;AuthModule</title>
<path fill="none" stroke="black" d="M122,-160.83C122,-177.2 122,-198.8 122,-198.8 122,-198.8 772.49,-198.8 772.49,-198.8 772.49,-198.8 772.49,-198.98 772.49,-198.98"/>
<polygon fill="black" stroke="black" points="768.99,-190.65 772.49,-200.65 775.99,-190.65 768.99,-190.65"/>
</g>
<!-- CartItemService -->
<g id="node21" class="node">
<title>CartItemService</title>
<ellipse fill="#fdb462" stroke="black" cx="2115" cy="-218.8" rx="74.13" ry="18"/>
<text text-anchor="middle" x="2115" y="-214.6" font-family="Times,serif" font-size="14.00">CartItemService</text>
</g>
<!-- CartItemService&#45;&gt;CartItemModule -->
<g id="edge21" class="edge">
<title>CartItemService&#45;&gt;CartItemModule</title>
<path fill="none" stroke="black" d="M2050.42,-209.8C1806.12,-209.8 952.33,-209.8 952.33,-209.8 952.33,-209.8 952.33,-171.11 952.33,-171.11"/>
<polygon fill="black" stroke="black" points="955.83,-171.11 952.33,-161.11 948.83,-171.11 955.83,-171.11"/>
</g>
<!-- CartService -->
<g id="node23" class="node">
<title>CartService</title>
<ellipse fill="#fdb462" stroke="black" cx="2422" cy="-218.8" rx="56.74" ry="18"/>
<text text-anchor="middle" x="2422" y="-214.6" font-family="Times,serif" font-size="14.00">CartService</text>
</g>
<!-- CartService&#45;&gt;CartModule -->
<g id="edge23" class="edge">
<title>CartService&#45;&gt;CartModule</title>
<path fill="none" stroke="black" d="M2422,-200.74C2422,-196.31 2422,-192.8 2422,-192.8 2422,-192.8 1039,-192.8 1039,-192.8 1039,-192.8 1039,-170.85 1039,-170.85"/>
<polygon fill="black" stroke="black" points="1042.5,-170.85 1039,-160.85 1035.5,-170.85 1042.5,-170.85"/>
</g>
<!-- CartTypeService -->
<g id="node25" class="node">
<title>CartTypeService</title>
<ellipse fill="#fdb462" stroke="black" cx="2705" cy="-218.8" rx="76.42" ry="18"/>
<text text-anchor="middle" x="2705" y="-214.6" font-family="Times,serif" font-size="14.00">CartTypeService</text>
</g>
<!-- CartTypeService&#45;&gt;CartTypeModule -->
<g id="edge25" class="edge">
<title>CartTypeService&#45;&gt;CartTypeModule</title>
<path fill="none" stroke="black" d="M2705,-200.77C2705,-193.95 2705,-187.8 2705,-187.8 2705,-187.8 1155,-187.8 1155,-187.8 1155,-187.8 1155,-170.84 1155,-170.84"/>
<polygon fill="black" stroke="black" points="1158.5,-170.84 1155,-160.84 1151.5,-170.84 1158.5,-170.84"/>
</g>
<!-- ExampleService -->
<g id="node26" class="node">
<title>ExampleService</title>
<ellipse fill="#fdb462" stroke="black" cx="798" cy="-66.8" rx="74.13" ry="18"/>
<text text-anchor="middle" x="798" y="-62.6" font-family="Times,serif" font-size="14.00">ExampleService</text>
</g>
<!-- ExampleService&#45;&gt;ExampleModule -->
<g id="edge26" class="edge">
<title>ExampleService&#45;&gt;ExampleModule</title>
<path fill="none" stroke="black" d="M798,-84.81C798,-84.81 798,-114.65 798,-114.65"/>
<polygon fill="black" stroke="black" points="794.5,-114.65 798,-124.65 801.5,-114.65 794.5,-114.65"/>
</g>
<!-- OrderService -->
<g id="node28" class="node">
<title>OrderService</title>
<ellipse fill="#fdb462" stroke="black" cx="3022" cy="-218.8" rx="62.53" ry="18"/>
<text text-anchor="middle" x="3022" y="-214.6" font-family="Times,serif" font-size="14.00">OrderService</text>
</g>
<!-- OrderService&#45;&gt;OrderModule -->
<g id="edge28" class="edge">
<title>OrderService&#45;&gt;OrderModule</title>
<path fill="none" stroke="black" d="M3022,-200.48C3022,-192.01 3022,-183.8 3022,-183.8 3022,-183.8 1266.63,-183.8 1266.63,-183.8 1266.63,-183.8 1266.63,-170.9 1266.63,-170.9"/>
<polygon fill="black" stroke="black" points="1270.13,-170.9 1266.63,-160.9 1263.13,-170.9 1270.13,-170.9"/>
</g>
<!-- PaymentService -->
<g id="node30" class="node">
<title>PaymentService</title>
<ellipse fill="#fdb462" stroke="black" cx="3317" cy="-218.8" rx="73.58" ry="18"/>
<text text-anchor="middle" x="3317" y="-214.6" font-family="Times,serif" font-size="14.00">PaymentService</text>
</g>
<!-- PaymentService&#45;&gt;PaymentModule -->
<g id="edge30" class="edge">
<title>PaymentService&#45;&gt;PaymentModule</title>
<path fill="none" stroke="black" d="M3317,-200.67C3317,-190.09 3317,-178.8 3317,-178.8 3317,-178.8 1393,-178.8 1393,-178.8 1393,-178.8 1393,-171.22 1393,-171.22"/>
<polygon fill="black" stroke="black" points="1396.5,-171.22 1393,-161.22 1389.5,-171.22 1396.5,-171.22"/>
</g>
<!-- PaymentTypeService -->
<g id="node32" class="node">
<title>PaymentTypeService</title>
<ellipse fill="#fdb462" stroke="black" cx="3659" cy="-218.8" rx="93.76" ry="18"/>
<text text-anchor="middle" x="3659" y="-214.6" font-family="Times,serif" font-size="14.00">PaymentTypeService</text>
</g>
<!-- PaymentTypeService&#45;&gt;PaymentTypeModule -->
<g id="edge32" class="edge">
<title>PaymentTypeService&#45;&gt;PaymentTypeModule</title>
<path fill="none" stroke="black" d="M3659,-200.65C3659,-188.53 3659,-174.8 3659,-174.8 3659,-174.8 1534,-174.8 1534,-174.8 1534,-174.8 1534,-171.04 1534,-171.04"/>
<polygon fill="black" stroke="black" points="1537.5,-171.04 1534,-161.04 1530.5,-171.04 1537.5,-171.04"/>
</g>
<!-- ProductCategoryService -->
<g id="node34" class="node">
<title>ProductCategoryService</title>
<ellipse fill="#fdb462" stroke="black" cx="4062" cy="-218.8" rx="105.36" ry="18"/>
<text text-anchor="middle" x="4062" y="-214.6" font-family="Times,serif" font-size="14.00">ProductCategoryService</text>
</g>
<!-- ProductCategoryService&#45;&gt;ProductCategoryModule -->
<g id="edge34" class="edge">
<title>ProductCategoryService&#45;&gt;ProductCategoryModule</title>
<path fill="none" stroke="black" d="M4062,-200.55C4062,-186.62 4062,-169.8 4062,-169.8 4062,-169.8 1698,-169.8 1698,-169.8 1698,-169.8 1698,-168.92 1698,-168.92"/>
<polygon fill="black" stroke="black" points="1701.5,-170.96 1698,-160.96 1694.5,-170.96 1701.5,-170.96"/>
</g>
<!-- ProductService -->
<g id="node36" class="node">
<title>ProductService</title>
<ellipse fill="#fdb462" stroke="black" cx="4457" cy="-218.8" rx="70.07" ry="18"/>
<text text-anchor="middle" x="4457" y="-214.6" font-family="Times,serif" font-size="14.00">ProductService</text>
</g>
<!-- ProductService&#45;&gt;ProductModule -->
<g id="edge36" class="edge">
<title>ProductService&#45;&gt;ProductModule</title>
<path fill="none" stroke="black" d="M4457,-200.56C4457,-185.23 4457,-165.8 4457,-165.8 4457,-165.8 1845,-165.8 1845,-165.8 1845,-165.8 1845,-165.31 1845,-165.31"/>
<polygon fill="black" stroke="black" points="1848.5,-170.92 1845,-160.92 1841.5,-170.92 1848.5,-170.92"/>
</g>
<!-- UserService -->
<g id="node38" class="node">
<title>UserService</title>
<ellipse fill="#fdb462" stroke="black" cx="4755" cy="-218.8" rx="58.46" ry="18"/>
<text text-anchor="middle" x="4755" y="-214.6" font-family="Times,serif" font-size="14.00">UserService</text>
</g>
<!-- UserService&#45;&gt;UserModule -->
<g id="edge38" class="edge">
<title>UserService&#45;&gt;UserModule</title>
<path fill="none" stroke="black" d="M4755,-200.77C4755,-180.03 4755,-148.8 4755,-148.8 4755,-148.8 2011.09,-148.8 2011.09,-148.8"/>
<polygon fill="black" stroke="black" points="2011.09,-145.3 2001.09,-148.8 2011.09,-152.3 2011.09,-145.3"/>
</g>
</g>
</svg>
